<svg width="24" height="16" viewBox="0 0 24 16" fill="none" xmlns="http://www.w3.org/2000/svg">
<g clip-path="url('#clip0_10_29')">
<path d="M0 0H9.60102V16.0024H0V0Z" fill="#076629"></path>
<path d="M9.59863 0H24.0006V16.0024H9.59863V0Z" fill="#E32121"></path>
<path d="M6.25779 6.38961C6.27914 6.42343 6.30048 6.45787 6.32394 6.4909C6.76016 6.63559 7.58903 6.83887 8.89287 6.88718C9.16562 6.89755 9.38347 6.89887 9.50609 6.89755H9.69768C9.8203 6.89895 10.0381 6.89755 10.3109 6.88718C11.6147 6.83895 12.4436 6.63567 12.8805 6.4909C12.9032 6.45787 12.9246 6.42335 12.9459 6.38961C12.9965 6.3088 13.0443 6.22629 13.0893 6.14223C13.0675 6.10163 13.0449 6.06142 13.0216 6.02162C12.5806 6.18563 11.5035 6.4902 9.61546 6.47851V6.47781C9.6063 6.47851 9.59711 6.47851 9.58796 6.47781V6.47851C7.6998 6.4902 6.62286 6.18563 6.18181 6.02162C6.15861 6.06144 6.13609 6.10165 6.11426 6.14223C6.15939 6.22624 6.20726 6.30874 6.25779 6.38961Z" fill="#F5E600"></path>
<path d="M9.77565 6.90792H9.64819L9.60612 6.90722H9.59365L9.5557 6.90792H9.42824C9.30965 6.90792 9.12018 6.9059 8.89284 6.89755C7.61378 6.84932 6.78772 6.655 6.31978 6.50057L6.31706 6.49916L6.31565 6.49635C6.29286 6.46308 6.27081 6.42931 6.24951 6.39506L6.2344 6.3709C6.19092 6.30063 6.14752 6.22481 6.10624 6.14698L6.10352 6.14215L6.10624 6.13802C6.12829 6.09594 6.15034 6.05535 6.17309 6.01679L6.17721 6.00985L6.18477 6.01257C6.64374 6.18282 7.68151 6.46877 9.47866 6.46877C9.51169 6.46877 9.54481 6.46877 9.57783 6.46806H9.62597C9.65909 6.46877 9.6922 6.46877 9.72453 6.46877H9.72523C11.5224 6.46877 12.5601 6.18273 13.0191 6.01257L13.0267 6.00985L13.0308 6.01679C13.0529 6.05465 13.0758 6.09533 13.0978 6.13802L13.1005 6.14215L13.0978 6.14698C13.0564 6.2256 13.013 6.30071 12.9689 6.3717L12.9545 6.39515C12.9304 6.43301 12.9088 6.46613 12.8882 6.49644L12.8867 6.49925L12.8833 6.50066C12.4163 6.655 11.5906 6.84932 10.311 6.89764C10.0836 6.90581 9.89415 6.90792 9.77565 6.90792ZM9.68737 6.88789H9.77565C9.89415 6.88789 10.0829 6.88648 10.3103 6.87752C11.5845 6.82991 12.4072 6.637 12.8744 6.48265C12.8903 6.45787 12.9075 6.43161 12.9268 6.40209L12.9379 6.38487C12.9875 6.30567 13.0344 6.22477 13.0785 6.14232C13.0579 6.10508 13.0378 6.06862 13.0181 6.0341C12.5551 6.20505 11.5158 6.48827 9.72558 6.48827H9.47892C7.68862 6.48827 6.64954 6.20505 6.18644 6.0341C6.1658 6.06862 6.14647 6.10508 6.12583 6.14232C6.1698 6.22482 6.21671 6.30572 6.26646 6.38487L6.28157 6.40762C6.29809 6.43521 6.3146 6.45998 6.3298 6.48273C6.79694 6.63708 7.61975 6.83008 8.8939 6.87761C9.12123 6.88657 9.31 6.88798 9.42859 6.88798H9.50651L9.68737 6.88789Z" fill="#101211"></path>
<path d="M9.58807 6.81901H9.61556C11.4031 6.83 12.4635 6.55784 12.946 6.3897C12.9246 6.42352 12.9026 6.45796 12.8805 6.49099C12.3705 6.65983 11.3267 6.90862 9.61565 6.89755H9.58816C7.87709 6.90853 6.83318 6.65975 6.32396 6.49099C6.3005 6.45796 6.27916 6.42344 6.25781 6.3897C6.74006 6.55775 7.80049 6.83 9.58807 6.81901Z" fill="#F5E600"></path>
<path d="M9.72521 6.90792C9.68875 6.90792 9.65221 6.90792 9.61567 6.90721H9.58809C7.84531 6.9189 6.78971 6.65571 6.31976 6.50065L6.31703 6.49925L6.31563 6.49644C6.29284 6.46317 6.27078 6.42939 6.24948 6.39515L6.23438 6.37099L6.26055 6.38065C6.72014 6.54054 7.74894 6.80926 9.47864 6.80926H9.57781V6.80856H9.62595V6.80926H9.72521C11.4548 6.80926 12.4836 6.54054 12.9433 6.38065L12.9695 6.37099L12.9543 6.39515C12.9306 6.43231 12.9095 6.46543 12.888 6.49644L12.8865 6.49925L12.8831 6.50065C12.4236 6.65219 11.4025 6.90792 9.72521 6.90792ZM9.62595 6.88789C11.3556 6.89825 12.4051 6.6377 12.8743 6.48265C12.8894 6.45919 12.9059 6.43512 12.9226 6.40824C12.4395 6.57295 11.3803 6.83966 9.61567 6.82859H9.47855C7.77916 6.82859 6.75387 6.56953 6.2812 6.40824C6.29841 6.43582 6.31422 6.45989 6.32942 6.48265C6.79867 6.6377 7.8482 6.89755 9.57772 6.88789H9.60179H9.62595Z" fill="#101211"></path>
<path d="M9.58793 6.55714H9.61542C11.558 6.56961 12.6426 6.24704 13.0589 6.08715C13.0463 6.0651 13.0348 6.04305 13.0216 6.02171C12.5805 6.18572 11.5035 6.49029 9.61542 6.4786V6.4779C9.60627 6.4786 9.59708 6.4786 9.58793 6.4779V6.4786C7.69977 6.49029 6.62283 6.18572 6.18178 6.02171C6.1693 6.04305 6.157 6.0651 6.14453 6.08715C6.56073 6.24704 7.64531 6.56953 9.58793 6.55714Z" fill="#F5E600"></path>
<path d="M9.72517 6.56742C9.68871 6.56742 9.65217 6.56742 9.61563 6.56672H9.58805C9.55151 6.56742 9.51496 6.56742 9.47851 6.56742C7.57375 6.56742 6.5099 6.23799 6.14122 6.09603L6.13086 6.0919L6.13639 6.08224C6.14808 6.06019 6.15985 6.03884 6.17294 6.01679L6.17706 6.00985L6.18462 6.01257C6.64359 6.18282 7.68135 6.46877 9.47851 6.46877C9.51154 6.46877 9.54465 6.46877 9.57768 6.46806H9.62582C9.65894 6.46877 9.69205 6.46877 9.72438 6.46877H9.72508C11.5222 6.46877 12.56 6.18273 13.019 6.01257L13.0265 6.00985L13.0307 6.01679C13.0433 6.03884 13.0555 6.06019 13.0672 6.08224L13.0727 6.0919L13.0625 6.09603C12.6939 6.23808 11.6298 6.56742 9.72517 6.56742ZM9.62591 6.54748C11.572 6.55846 12.6607 6.22771 13.0451 6.08162C13.0357 6.06572 13.0273 6.04991 13.0177 6.03401C12.5546 6.20496 11.5154 6.48818 9.72517 6.48818H9.47851C7.68821 6.48818 6.64913 6.20496 6.18602 6.03401C6.17636 6.04991 6.1681 6.06572 6.15853 6.08162C6.53616 6.22499 7.59448 6.54748 9.47851 6.54748H9.60175H9.62591Z" fill="#101211"></path>
<path d="M9.33247 8.87878C11.8367 10.3151 12.5403 10.4342 12.7241 10.4224C12.7819 10.3476 12.837 10.2709 12.8895 10.1923C12.9709 10.0619 13.0445 9.92683 13.1101 9.78783C12.8731 9.77957 12.1083 9.59202 9.75912 8.24426C6.96478 6.6413 6.48806 5.84048 6.41639 5.67919C6.35709 5.75588 6.30031 5.83449 6.24615 5.91488C6.1583 6.05615 6.07935 6.20276 6.00977 6.35386C6.1338 6.58332 6.71953 7.37992 9.33247 8.87878Z" fill="#F5E600"></path>
<path d="M12.7009 10.4328C12.4969 10.4328 11.7603 10.2826 9.32796 8.88704C6.69359 7.37571 6.1162 6.56953 6.00175 6.35852L5.99902 6.35368L6.00104 6.34956C6.07093 6.19802 6.15011 6.05094 6.23813 5.90917C6.29259 5.82862 6.34907 5.74929 6.40837 5.67286L6.41935 5.65977L6.42558 5.67497C6.48962 5.81966 6.95545 6.62461 9.76419 8.23521C12.1531 9.6059 12.9002 9.77114 13.1105 9.77808L13.1258 9.77879L13.1197 9.79258C13.0538 9.93157 12.9799 10.0666 12.8983 10.197C12.8459 10.2763 12.7905 10.3536 12.7321 10.4286L12.7294 10.4321H12.7245C12.7174 10.4328 12.7091 10.4328 12.7009 10.4328ZM6.0209 6.35316C6.1401 6.56953 6.72521 7.37167 9.33815 8.86982C11.7658 10.2633 12.4983 10.4135 12.7009 10.4135C12.7071 10.4135 12.7135 10.4135 12.7187 10.4128C12.7756 10.3394 12.8299 10.264 12.8814 10.1868C12.9601 10.0612 13.0315 9.93113 13.0952 9.79732C12.8176 9.78081 12.0189 9.55126 9.75461 8.25234C7.02352 6.68663 6.50192 5.87755 6.41372 5.69764C6.3583 5.77012 6.30522 5.84436 6.25456 5.92024C6.16792 6.05965 6.08988 6.20422 6.0209 6.35316Z" fill="#101211"></path>
<path d="M9.33256 8.87878C11.8367 10.3151 12.5404 10.4342 12.7242 10.4224C12.736 10.4072 12.7478 10.3914 12.7594 10.3763C12.5056 10.3618 11.7194 10.155 9.38201 8.81474C6.84497 7.35937 6.19722 6.55855 6.03875 6.29114C6.02909 6.31178 6.01943 6.33251 6.00977 6.35386C6.13389 6.58332 6.71962 7.37992 9.33256 8.87878Z" fill="#F5E600"></path>
<path d="M12.7009 10.4328C12.4969 10.4328 11.7603 10.2826 9.32796 8.88704C6.69359 7.37571 6.1162 6.56953 6.00175 6.35852L5.99902 6.35368L6.00104 6.34956C6.01071 6.32821 6.02037 6.30748 6.03003 6.28683L6.03759 6.27032L6.04725 6.28613C6.21125 6.5625 6.86576 7.3591 9.38787 8.80631C11.6908 10.1275 12.489 10.3507 12.7604 10.3665L12.7784 10.3672L12.7674 10.3817C12.7563 10.3976 12.7438 10.4134 12.7323 10.4285L12.7295 10.432H12.7247C12.7174 10.4328 12.7091 10.4328 12.7009 10.4328ZM6.0209 6.35316C6.1401 6.56953 6.72521 7.37167 9.33815 8.86982C11.7658 10.2633 12.4983 10.4135 12.7009 10.4135C12.7071 10.4135 12.7135 10.4135 12.7187 10.4128C12.7265 10.4037 12.7332 10.3941 12.7409 10.3845C12.4514 10.3604 11.6348 10.1185 9.37742 8.82353C6.89738 7.40057 6.21933 6.60317 6.04013 6.3124C6.03328 6.32557 6.02713 6.33937 6.0209 6.35316Z" fill="#101211"></path>
<path d="M6.41629 5.6791C6.39696 5.70396 6.37772 5.72944 6.3584 5.75491C6.48375 5.9878 7.07773 6.79345 9.71975 8.30883C11.9827 9.60704 12.7918 9.84133 13.0707 9.8683C13.0837 9.84133 13.0976 9.81524 13.1098 9.78766C12.8729 9.7794 12.1081 9.59184 9.75884 8.24408C6.96468 6.64121 6.48797 5.84039 6.41629 5.6791Z" fill="#F5E600"></path>
<path d="M13.0769 9.87884L13.0701 9.87805C12.7855 9.85117 11.9716 9.61214 9.71418 8.31717C7.05012 6.78862 6.46588 5.97339 6.35011 5.75975L6.34668 5.75421L6.35011 5.74938C6.36943 5.7232 6.38867 5.69834 6.40799 5.67286L6.41897 5.65977L6.42521 5.67497C6.48925 5.81966 6.95507 6.62461 9.76381 8.23521C12.1528 9.6059 12.8999 9.77114 13.1101 9.77808L13.1253 9.77879L13.1192 9.79258C13.1062 9.81946 13.0936 9.84564 13.08 9.87252L13.0769 9.87884ZM6.37005 5.75632C6.49206 5.97682 7.08666 6.78721 9.72446 8.30057C11.9606 9.58315 12.7764 9.82772 13.0652 9.85802C13.0747 9.83738 13.0852 9.81735 13.0948 9.79741C12.8171 9.78089 12.0184 9.55135 9.75415 8.25243C7.02324 6.68672 6.50163 5.87764 6.41344 5.69772C6.39965 5.71705 6.38454 5.73638 6.37005 5.75632Z" fill="#101211"></path>
<path d="M9.60189 10.3322C7.90189 10.3273 6.87792 10.1219 6.27989 9.91732C6.25582 9.95316 6.23307 9.99102 6.21094 10.0283C6.28904 10.1594 6.37486 10.2858 6.46796 10.4067C7.77373 10.7691 9.60189 10.7691 9.60189 10.7691C9.60189 10.7691 11.4301 10.7691 12.7359 10.4067C12.8291 10.2856 12.9152 10.1593 12.9938 10.0283C12.9709 9.99111 12.9481 9.95325 12.9242 9.91732C12.326 10.122 11.3019 10.3274 9.60189 10.3322Z" fill="#F5E600"></path>
<path d="M9.60158 10.7788C9.58296 10.7788 7.75691 10.7746 6.46563 10.4162L6.4615 10.4148L6.4601 10.4129C6.36645 10.2916 6.28018 10.1648 6.20176 10.0332L6.19824 10.0283L6.20176 10.0234C6.22723 9.98004 6.24928 9.94482 6.27133 9.91179L6.27545 9.90485L6.28239 9.90766C6.82745 10.0936 7.84519 10.3176 9.60167 10.3225C11.3582 10.3176 12.376 10.0937 12.9211 9.90766L12.928 9.90485L12.9321 9.91179C12.9542 9.94482 12.9762 9.97996 13.0018 10.0234L13.0052 10.0283L13.0018 10.0332C12.9233 10.1648 12.8371 10.2916 12.7435 10.4129L12.742 10.4148L12.7384 10.4162C11.4463 10.7746 9.62021 10.7788 9.60158 10.7788ZM6.47389 10.3985C7.76244 10.7547 9.58296 10.7595 9.60158 10.7595C9.62021 10.7595 11.4408 10.7546 12.7295 10.3985C12.8204 10.28 12.9046 10.1564 12.9816 10.0284C12.9614 9.99471 12.9407 9.96138 12.9195 9.92839C12.3718 10.1151 11.3525 10.3378 9.60158 10.3419C7.85063 10.3378 6.83149 10.1152 6.28371 9.92839C6.26439 9.95879 6.24445 9.99041 6.2217 10.0284C6.29869 10.1564 6.38289 10.28 6.47389 10.3985Z" fill="#101211"></path>
<path d="M9.60189 10.4108C7.86192 10.4066 6.8311 10.1916 6.23852 9.98215C6.22886 9.99726 6.2206 10.0132 6.21094 10.029C6.2674 10.124 6.3281 10.2164 6.39286 10.306C7.70205 10.6898 9.60189 10.6898 9.60189 10.6898C9.60189 10.6898 11.501 10.6898 12.8111 10.306C12.8757 10.2163 12.9363 10.1239 12.9928 10.029C12.9838 10.0131 12.9751 9.99726 12.9654 9.98215C12.3727 10.1916 11.3418 10.4065 9.60189 10.4108Z" fill="#F5E600"></path>
<path d="M9.60186 10.7002C9.58324 10.7002 7.6862 10.6954 6.3901 10.3157L6.38738 10.315L6.38456 10.3122C6.32025 10.2219 6.25956 10.129 6.20264 10.0338L6.19922 10.029L6.21301 10.0054C6.21916 9.99586 6.22469 9.98611 6.23023 9.97644L6.23435 9.9695L6.24191 9.97231C6.78767 10.1652 7.81366 10.3961 9.60186 10.4009C11.3901 10.3961 12.4161 10.1652 12.9618 9.97231L12.9694 9.9695L12.9736 9.97644C12.9791 9.98611 12.9846 9.99586 12.9908 10.0054L13.0045 10.029L13.0018 10.0338C12.9445 10.129 12.8833 10.2219 12.8185 10.3122L12.8165 10.315L12.8138 10.3157C11.5175 10.6955 9.62048 10.7002 9.60186 10.7002ZM6.39967 10.2977C7.69235 10.6754 9.58324 10.6802 9.60186 10.6802C9.62048 10.6802 11.5114 10.6754 12.8047 10.2977C12.8673 10.2105 12.9264 10.1208 12.9819 10.0289L12.9736 10.0151C12.9694 10.0082 12.9652 10.0006 12.9611 9.99375C12.4119 10.1867 11.3843 10.4162 9.60168 10.421C7.81902 10.4161 6.79162 10.1867 6.24244 9.99375C6.23831 10.0007 6.23418 10.0082 6.22996 10.0151L6.22171 10.0289C6.27707 10.1211 6.33645 10.2107 6.39967 10.2977Z" fill="#101211"></path>
<path d="M9.60215 8.99456C9.60215 8.99456 12.393 8.99456 13.5411 8.31181C13.5466 8.24144 13.5501 8.16985 13.552 8.09808C13.5506 8.0176 13.5471 7.93716 13.5418 7.85685C13.1903 8.0871 12.1656 8.55084 9.60215 8.55778C7.03945 8.55084 6.01416 8.0871 5.66271 7.85685C5.65718 7.93679 5.65375 8.01743 5.65234 8.09808C5.65436 8.16967 5.65788 8.24136 5.66332 8.31181C6.81203 8.99456 9.60215 8.99456 9.60215 8.99456Z" fill="#F5E600"></path>
<path d="M9.60168 9.00485C9.57349 9.00485 6.79505 8.99659 5.65812 8.31989L5.65399 8.31717L5.65258 8.31234C5.64705 8.24127 5.64432 8.16967 5.6416 8.09861C5.64362 8.009 5.64714 7.92976 5.65258 7.85667L5.65399 7.83945L5.66778 7.84842C5.9848 8.05653 7.00324 8.54101 9.60177 8.54786C12.2004 8.54092 13.2188 8.05653 13.5358 7.84842L13.5496 7.83945L13.5511 7.85667C13.5567 7.92976 13.5601 8.009 13.5613 8.0979C13.5598 8.1694 13.5564 8.24085 13.5511 8.31216L13.5503 8.317L13.5454 8.31972C12.4083 8.99676 9.62997 9.00485 9.60168 9.00485ZM5.67191 8.30619C6.80753 8.97665 9.57349 8.9849 9.60168 8.9849C9.62997 8.9849 12.396 8.97665 13.5316 8.30619C13.5366 8.23691 13.5398 8.16752 13.5412 8.09808C13.5406 8.02356 13.5375 7.94909 13.5321 7.87477C13.1978 8.0885 12.1685 8.56112 9.60142 8.56815C7.0346 8.5613 6.00518 8.08859 5.67024 7.87477C5.66584 7.94914 5.66308 8.02359 5.66198 8.09808C5.66356 8.16695 5.66699 8.23653 5.67191 8.30619Z" fill="#101211"></path>
<path d="M9.60172 8.63685C7.03902 8.62991 6.01374 8.16634 5.66228 7.9367C5.65745 8.00145 5.65543 8.06768 5.65332 8.13383C5.65402 8.16555 5.65543 8.19726 5.65745 8.22959C6.80203 8.91524 9.60172 8.91524 9.60172 8.91524C9.60172 8.91524 12.4016 8.91524 13.5461 8.22959C13.5481 8.1977 13.5495 8.16578 13.5502 8.13383C13.549 8.06806 13.546 8.00232 13.5412 7.9367C13.1898 8.16634 12.1651 8.63 9.60172 8.63685Z" fill="#F5E600"></path>
<path d="M9.60134 8.92561C9.57315 8.92561 6.78654 8.91735 5.65224 8.23785L5.64811 8.23521L5.64671 8.23029L5.64258 8.13384C5.6453 8.05521 5.64811 7.99328 5.65224 7.93539L5.65365 7.91887L5.66744 7.92783C5.98446 8.13594 7.0029 8.62043 9.60143 8.62728C12.2001 8.62043 13.2185 8.13586 13.5354 7.92783L13.5493 7.91887L13.5508 7.93539C13.5549 7.99328 13.5576 8.0553 13.5603 8.13313C13.5588 8.16616 13.5576 8.19779 13.5554 8.2302V8.23512L13.5504 8.23776C12.4163 8.91735 9.62963 8.92561 9.60134 8.92561ZM5.66665 8.22344C6.79884 8.89741 9.57306 8.90576 9.60126 8.90576C9.62954 8.90576 12.4038 8.8975 13.5359 8.22344C13.5381 8.19384 13.5395 8.16344 13.5402 8.13322C13.5385 8.07323 13.5356 8.01328 13.5317 7.9534C13.1975 8.16704 12.1682 8.63975 9.60108 8.6466C7.03425 8.63966 6.00484 8.16704 5.6699 7.9534C5.66655 8.01353 5.66423 8.07371 5.66296 8.13392C5.66322 8.16353 5.66463 8.19384 5.66665 8.22344Z" fill="#101211"></path>
<path d="M9.60188 4.04935C7.41953 4.04935 5.65137 5.81834 5.65137 8.00083C5.65137 10.1833 7.41953 11.9517 9.60188 11.9517C11.7843 11.9517 13.5531 10.1833 13.5531 8.00083C13.5531 5.81834 11.7843 4.04935 9.60188 4.04935ZM9.60188 11.5568C7.63808 11.5568 6.0456 9.96485 6.0456 8.00083C6.0456 6.03682 7.63808 4.44422 9.60188 4.44422C11.5658 4.44422 13.1576 6.03682 13.1576 8.00083C13.1576 9.96485 11.5658 11.5568 9.60188 11.5568Z" fill="#F5E600"></path>
<path d="M9.60141 11.9621C7.41775 11.9621 5.64062 10.1848 5.64062 8.00092C5.64062 5.81702 7.41775 4.03977 9.60141 4.03977C11.7852 4.03977 13.5624 5.81702 13.5624 8.00092C13.5624 10.1847 11.7852 11.9621 9.60141 11.9621ZM9.60141 4.05971C7.42882 4.05971 5.66056 5.8273 5.66056 8.00083C5.66056 10.1737 7.42873 11.942 9.60141 11.942C11.7741 11.942 13.5423 10.1737 13.5423 8.00083C13.5423 5.8273 11.7741 4.05971 9.60141 4.05971ZM9.60141 11.567C7.63542 11.567 6.03547 9.96696 6.03547 8.00083C6.03547 6.03471 7.63542 4.43456 9.60141 4.43456C11.5674 4.43456 13.1675 6.03471 13.1675 8.00083C13.1674 9.96704 11.5674 11.567 9.60141 11.567ZM9.60141 4.4545C7.64649 4.4545 6.05541 6.04578 6.05541 8.00083C6.05541 9.95589 7.64649 11.5471 9.60141 11.5471C11.5564 11.5471 13.1476 9.95598 13.1476 8.00083C13.1476 6.04569 11.5564 4.4545 9.60141 4.4545Z" fill="#101211"></path>
<path d="M9.60147 4.12859C7.46323 4.12859 5.72949 5.86244 5.72949 8.00083C5.72949 10.1392 7.46323 11.8731 9.60147 11.8731C11.7398 11.8731 13.4734 10.1393 13.4734 8.00083C13.4734 5.86235 11.7398 4.12859 9.60147 4.12859ZM9.60147 11.6361C7.59411 11.6361 5.96658 10.0084 5.96658 8.00101C5.96658 5.99351 7.59411 4.36586 9.60147 4.36586C11.6088 4.36586 13.2364 5.9936 13.2364 8.00101C13.2364 10.0084 11.6087 11.6361 9.60147 11.6361Z" fill="#F5E600"></path>
<path d="M9.60226 11.8827C7.46129 11.8827 5.7207 10.1413 5.7207 8.00092C5.7207 5.8598 7.46129 4.11901 9.60226 4.11901C11.7426 4.11901 13.4839 5.8598 13.4839 8.00092C13.4839 10.1412 11.7426 11.8827 9.60226 11.8827ZM9.60226 4.13825C7.47236 4.13825 5.74003 5.87079 5.74003 8.00083C5.74003 10.1303 7.47236 11.8635 9.60226 11.8635C11.7322 11.8635 13.4647 10.1303 13.4647 8.00083C13.4647 5.87079 11.7322 4.13825 9.60226 4.13825ZM9.60226 11.6456C7.59217 11.6456 5.9577 10.0111 5.9577 8.00083C5.9577 5.99061 7.59217 4.35602 9.60226 4.35602C11.6123 4.35602 13.2469 5.99061 13.2469 8.00083C13.2469 10.0111 11.6123 11.6456 9.60226 11.6456ZM9.60226 4.37535C7.60324 4.37535 5.97703 6.00168 5.97703 8.00092C5.97703 10.0001 7.60324 11.6265 9.60226 11.6265C11.6014 11.6265 13.2276 10.0001 13.2276 8.00092C13.2276 6.00168 11.6014 4.37535 9.60226 4.37535Z" fill="#101211"></path>
<path d="M9.4043 4.04935H9.79985V11.9517H9.4043V4.04935Z" fill="#F5E600"></path>
<path d="M9.80941 11.9621H9.39453V4.03968H9.80941V11.9621ZM9.41386 11.942H9.79008V4.05971H9.41386V11.942Z" fill="#101211"></path>
<path d="M9.4043 4.01008H9.48353V11.9917H9.4043V4.01008Z" fill="#F5E600"></path>
<path d="M9.49379 12.0013H9.39453V4.00042H9.49379V12.0013ZM9.41386 11.982H9.47315V4.01974H9.41386V11.982Z" fill="#101211"></path>
<path d="M9.7207 4.01008H9.79994V11.9917H9.7207V4.01008Z" fill="#F5E600"></path>
<path d="M9.80922 12.0013H9.70996V4.00042H9.80922V12.0013ZM9.73078 11.982H9.78999V4.01974H9.73078V11.982Z" fill="#101211"></path>
<path d="M5.65412 7.85676C5.64861 8.00661 5.65137 8.15665 5.66237 8.30619C6.01383 8.07603 7.03912 7.61289 9.60181 7.60604C12.1653 7.61289 13.19 8.07603 13.5414 8.30619C13.549 8.20552 13.5531 8.10353 13.5531 8.00083C13.5531 7.9526 13.5517 7.90508 13.5497 7.85676C12.4071 7.169 9.6019 7.169 9.6019 7.169C9.6019 7.169 6.79668 7.16909 5.65412 7.85676Z" fill="#F5E600"></path>
<path d="M13.5493 8.32402L13.5356 8.31436C13.2187 8.10625 12.1994 7.62247 9.60151 7.61562C7.00297 7.62247 5.98453 8.10625 5.66751 8.31436L5.65372 8.32402L5.65232 8.30751C5.64431 8.20548 5.64042 8.10317 5.64063 8.00083C5.64063 7.95743 5.64134 7.91193 5.64336 7.85676L5.64406 7.85123L5.64819 7.8485C6.77968 7.16698 9.57322 7.15934 9.60142 7.15934C9.6297 7.15934 12.4233 7.16689 13.5547 7.8485L13.5589 7.85123L13.5596 7.85676C13.5654 8.00706 13.5624 8.15756 13.5506 8.30751L13.5493 8.32402ZM9.60151 7.59568C12.1677 7.60323 13.1979 8.07603 13.5322 8.28897C13.539 8.19311 13.5424 8.09703 13.5424 8.00092C13.5424 7.95954 13.5417 7.91544 13.5397 7.86309C12.4098 7.18701 9.62997 7.17875 9.60151 7.17875C9.57331 7.17875 6.79356 7.18701 5.66338 7.86309C5.65812 8.00507 5.66043 8.14724 5.67032 8.28897C6.00518 8.07603 7.03468 7.60323 9.60151 7.59568Z" fill="#101211"></path>
<path d="M9.60145 7.24763C9.60145 7.24763 6.79622 7.24763 5.65375 7.93609C5.65234 7.95401 5.65234 7.97193 5.65234 7.99056C5.65375 8.0698 5.65647 8.14903 5.66201 8.22775C6.01346 7.9975 7.03875 7.53384 9.60145 7.52681C12.1649 7.53375 13.1896 7.9975 13.5411 8.22775C13.5466 8.14903 13.5501 8.06988 13.5513 7.99056C13.5505 7.97202 13.5505 7.95401 13.5494 7.93609C12.4067 7.24763 9.60145 7.24763 9.60145 7.24763Z" fill="#F5E600"></path>
<path d="M13.5499 8.24479L13.5362 8.23582C13.2194 8.02762 12.2001 7.54394 9.60213 7.53638C7.0036 7.54394 5.98516 8.02771 5.66814 8.23582L5.65435 8.24479L5.65294 8.22766C5.64704 8.14872 5.64359 8.06962 5.64258 7.99047C5.64328 7.97193 5.64328 7.95392 5.64398 7.936L5.64469 7.93047L5.64881 7.92765C6.7803 7.24613 9.57385 7.23779 9.60205 7.23779C9.63033 7.23779 12.424 7.24604 13.5554 7.92765L13.5595 7.93047L13.5602 7.936C13.5611 7.95392 13.5611 7.97184 13.5618 7.98976C13.5606 8.06915 13.5571 8.14848 13.5513 8.22766L13.5499 8.24479ZM5.66401 7.94233C5.66261 7.95814 5.66261 7.97404 5.66261 7.99055C5.66401 8.0712 5.66673 8.14367 5.67086 8.20982C6.0058 7.99609 7.03522 7.52347 9.60205 7.51644C12.1683 7.52338 13.1984 7.99609 13.5326 8.20982C13.5377 8.14367 13.5403 8.07129 13.5418 7.99003C13.5418 7.97421 13.541 7.95831 13.5403 7.9425C12.4103 7.26572 9.63042 7.25817 9.60205 7.25817C9.57394 7.25799 6.7941 7.26555 5.66401 7.94233Z" fill="#101211"></path>
<path d="M6.02148 6.3283C6.30881 6.20153 7.40789 5.79357 9.58751 5.80736V5.80806H9.615V5.80736C11.7946 5.79357 12.8937 6.20153 13.1817 6.3283C13.1117 6.1797 13.0328 6.03543 12.9455 5.89626C12.9241 5.86253 12.9028 5.82809 12.88 5.79497C12.4431 5.65029 11.6142 5.44692 10.3105 5.39869C10.0377 5.38832 9.81994 5.38692 9.69731 5.38832H9.50573C9.3831 5.38692 9.16525 5.38832 8.89251 5.39869C7.58867 5.44692 6.75979 5.6502 6.32357 5.79497C6.30012 5.828 6.27877 5.86253 6.25743 5.89626C6.16957 6.03504 6.09075 6.17936 6.02148 6.3283Z" fill="#F5E600"></path>
<path d="M6.00098 6.34762L6.01205 6.32417C6.07849 6.18357 6.15257 6.0467 6.23393 5.91418L6.24904 5.89143C6.2725 5.85286 6.29454 5.81974 6.31519 5.78944L6.31659 5.78671L6.31932 5.78531C6.78725 5.63096 7.61331 5.43664 8.89238 5.38841C9.11971 5.38015 9.30919 5.37804 9.42777 5.37804C9.45667 5.37804 9.48294 5.37804 9.50569 5.37875H9.69727C9.72002 5.37804 9.7462 5.37804 9.77519 5.37804C9.89369 5.37804 10.0832 5.38006 10.3106 5.38841C11.5902 5.43664 12.4158 5.63096 12.883 5.78531L12.8864 5.78671L12.8879 5.78944C12.9084 5.81974 12.9299 5.85216 12.9541 5.89143L12.9693 5.91418H12.9685C13.0507 6.04635 13.125 6.18325 13.191 6.32417L13.2022 6.34762L13.1781 6.33725C12.8963 6.21392 11.7992 5.80455 9.62586 5.81763H9.57772C9.54469 5.81693 9.51157 5.81693 9.47855 5.81693C7.37131 5.81693 6.30324 6.21523 6.02549 6.33717L6.00098 6.34762ZM6.27662 5.88449L6.26564 5.901C6.18289 6.03251 6.10786 6.16873 6.04094 6.30897C6.35384 6.17597 7.42454 5.79761 9.47811 5.79761H9.61523C11.7411 5.78381 12.8435 6.17386 13.1619 6.30897C13.0951 6.16868 13.02 6.03245 12.9371 5.901L12.9219 5.87825H12.9226C12.9049 5.85075 12.8888 5.8266 12.8737 5.80314C12.4065 5.64879 11.5837 5.45579 10.3096 5.40826C10.1315 5.40132 9.9532 5.3979 9.77492 5.39799H9.42751C9.30892 5.39799 9.12015 5.39939 8.89282 5.40826C7.61867 5.45588 6.79586 5.64879 6.32871 5.80314C6.31246 5.828 6.29595 5.85418 6.27662 5.88449Z" fill="#101211"></path>
<path d="M9.615 5.72873H9.58751C7.51541 5.71494 6.41976 6.08364 6.06971 6.22903C6.0532 6.26206 6.03668 6.29517 6.02148 6.32821C6.30881 6.20144 7.40789 5.79348 9.58751 5.80727V5.80797H9.615V5.80736C11.7946 5.79356 12.8938 6.20153 13.1817 6.32829C13.1659 6.29501 13.1495 6.26195 13.1327 6.22911C12.7828 6.08302 11.6871 5.71503 9.615 5.72873Z" fill="#F5E600"></path>
<path d="M6.00098 6.34762L6.01205 6.32417C6.02786 6.29044 6.04446 6.25732 6.06097 6.2242L6.06299 6.22077L6.0658 6.21937C6.4365 6.06634 7.52934 5.70528 9.58773 5.71907H9.61531C11.6736 5.70528 12.7666 6.06642 13.1372 6.21937L13.14 6.22077L13.1419 6.2242C13.1584 6.25732 13.1749 6.29035 13.1909 6.32417L13.2021 6.34762L13.1779 6.33726C12.8961 6.21392 11.7991 5.80455 9.62568 5.81764H9.57754C7.40548 5.80516 6.30719 6.21392 6.0254 6.33726L6.00098 6.34762ZM6.07678 6.23597C6.06431 6.26074 6.05333 6.2842 6.04094 6.30906C6.35937 6.17333 7.46319 5.78391 9.58764 5.7977H9.72477C11.7782 5.7977 12.8491 6.17606 13.1619 6.30906C13.1497 6.28485 13.1377 6.26049 13.1261 6.23597C12.7601 6.08575 11.7032 5.7384 9.72477 5.7384H9.57737C7.53487 5.72672 6.44888 6.08303 6.07678 6.23597Z" fill="#101211"></path>
<path d="M9.58807 5.46686V5.46757C9.5929 5.46686 9.61082 5.46686 9.61556 5.46757V5.46686C11.4031 5.45588 12.4635 5.72803 12.946 5.89618C12.9245 5.86216 12.9027 5.8284 12.8805 5.79489C12.3705 5.62604 11.3267 5.37726 9.61565 5.38833H9.58816C7.87709 5.37735 6.83318 5.62604 6.32396 5.79489C6.3005 5.82792 6.27916 5.86244 6.25781 5.89618C6.74006 5.72812 7.80049 5.45588 9.58807 5.46686Z" fill="#F5E600"></path>
<path d="M6.23438 5.91488L6.24948 5.89143C6.27294 5.85286 6.29499 5.81974 6.31563 5.78944L6.31703 5.78671L6.31976 5.78531C6.78971 5.63026 7.84601 5.36777 9.58809 5.37875H9.61567C11.3584 5.36777 12.414 5.63026 12.8833 5.78531L12.8867 5.78671L12.8881 5.78944C12.9096 5.82045 12.9308 5.85348 12.9544 5.89143L12.9696 5.91488L12.9434 5.90522C12.4839 5.74534 11.4551 5.47661 9.72538 5.47661C9.69235 5.47661 9.65924 5.47661 9.62612 5.47731H9.57798C9.54496 5.47661 9.51184 5.47661 9.47881 5.47661C7.74921 5.47661 6.7204 5.74543 6.26073 5.90522L6.23438 5.91488ZM6.32942 5.80323C6.31422 5.82598 6.29841 5.85014 6.2812 5.87764C6.76432 5.71292 7.82194 5.44622 9.58809 5.45728H9.61567C11.3817 5.4463 12.4395 5.71301 12.9226 5.87764C12.906 5.85075 12.8894 5.8266 12.8743 5.80323C12.4049 5.64818 11.3556 5.38841 9.62595 5.39807H9.57781C7.8468 5.38832 6.79806 5.64809 6.32942 5.80323Z" fill="#101211"></path>
<path d="M6.07227 9.77808C6.13482 9.90234 6.20406 10.0231 6.27966 10.1399C6.87777 9.93454 7.90175 9.72924 9.60166 9.7244C11.3018 9.72932 12.3257 9.93471 12.9238 10.1399C12.9994 10.0231 13.0686 9.90234 13.1311 9.77808C11.8391 9.28745 9.60157 9.28745 9.60157 9.28745C9.60157 9.28745 7.36424 9.28745 6.07227 9.77808Z" fill="#F5E600"></path>
<path d="M12.9281 10.1516L12.9212 10.1489C12.3762 9.96291 11.3584 9.7396 9.60187 9.73398C7.84538 9.73951 6.82765 9.96274 6.28259 10.1489L6.27565 10.1516L6.27152 10.1447C6.19562 10.0277 6.12615 9.90672 6.06343 9.78221L6.05859 9.77263L6.06896 9.7685C7.34794 9.28341 9.57912 9.27779 9.60187 9.27779C9.62462 9.27779 11.8559 9.28332 13.1349 9.7685L13.1452 9.77263L13.1402 9.78221C13.0778 9.90689 13.0083 10.0279 12.9321 10.1447L12.9281 10.1516ZM6.08618 9.7837C6.14622 9.90184 6.21225 10.0168 6.284 10.1282C6.83178 9.94148 7.85092 9.71887 9.60187 9.71474C11.3529 9.71887 12.372 9.94148 12.9198 10.1282C12.9915 10.0168 13.0575 9.9018 13.1176 9.7837C11.84 9.30326 9.62453 9.29711 9.60187 9.29711C9.5792 9.29711 7.36366 9.30326 6.08618 9.7837Z" fill="#101211"></path>
<path d="M6.10547 9.84423C6.14754 9.92294 6.19094 9.99937 6.23776 10.0744C6.83034 9.86487 7.86116 9.64991 9.60113 9.64578C11.3411 9.64991 12.372 9.86487 12.9647 10.0744C13.011 9.99913 13.0549 9.92237 13.0963 9.84423C11.7995 9.36669 9.60113 9.36669 9.60113 9.36669C9.60113 9.36669 7.40368 9.36678 6.10547 9.84423Z" fill="#F5E600"></path>
<path d="M12.9688 10.087L12.9612 10.0842C12.4154 9.89123 11.3894 9.66037 9.60125 9.65554C7.81314 9.66037 6.78706 9.89123 6.2413 10.0842L6.23375 10.087L6.22962 10.08C6.18273 10.0044 6.1386 9.92716 6.09733 9.84836L6.0918 9.83879L6.10278 9.83466C7.38658 9.36256 9.5792 9.35641 9.60125 9.35641C9.6233 9.35641 11.816 9.36256 13.0999 9.83466L13.1109 9.83879L13.1053 9.84836C13.0639 9.92706 13.0197 10.0043 12.973 10.08L12.9688 10.087ZM9.60125 9.63551C11.3839 9.64043 12.4114 9.8698 12.9606 10.0627C13.0033 9.99314 13.0439 9.92145 13.0828 9.84977C11.8003 9.3818 9.62348 9.37627 9.60143 9.37627C9.57938 9.37627 7.40257 9.3818 6.12026 9.84977C6.15821 9.92136 6.19949 9.99314 6.24227 10.0627C6.79119 9.8698 7.81859 9.64025 9.60125 9.63551Z" fill="#101211"></path>
<path d="M12.72 10.4281C12.8795 10.2231 13.0185 10.0029 13.135 9.7707C13.0316 9.56602 12.4852 8.7673 9.80321 7.22847C7.24183 5.75922 6.56449 5.6683 6.39978 5.68622C6.25569 5.8849 6.13067 6.09673 6.02637 6.3189C6.26345 6.32716 7.0275 6.51594 9.37674 7.86326C12.1716 9.46587 12.6471 10.266 12.72 10.4281Z" fill="#F5E600"></path>
<path d="M12.7169 10.4466L12.7101 10.4321C12.6453 10.2867 12.1809 9.48318 9.37139 7.87187C6.98236 6.50118 6.23544 6.33647 6.02524 6.32891L6.01074 6.32821L6.01628 6.31442C6.12166 6.09175 6.24737 5.87928 6.3918 5.67972L6.39382 5.67629L6.39865 5.67559C6.40972 5.67489 6.4214 5.67357 6.43519 5.67357C6.63916 5.67357 7.3751 5.82449 9.80753 7.22004C12.4852 8.75545 13.038 9.55697 13.1436 9.76579L13.1455 9.77062L13.1436 9.77545C13.0263 10.0079 12.8869 10.2285 12.7274 10.4343L12.7169 10.4466ZM6.04105 6.30976C6.3181 6.32628 7.11676 6.55574 9.38176 7.85474C12.112 9.42125 12.6329 10.2287 12.7211 10.4094C12.8754 10.21 13.0102 9.99605 13.1236 9.7707C13.0132 9.55644 12.4518 8.75975 9.79804 7.23673C7.36965 5.84461 6.63714 5.69369 6.43519 5.69369C6.42421 5.69369 6.41455 5.69439 6.40489 5.69509C6.26553 5.88873 6.14376 6.09444 6.04105 6.30976Z" fill="#101211"></path>
<path d="M9.41662 7.79826C7.15294 6.49995 6.344 6.26557 6.06493 6.23878C6.05114 6.26496 6.03875 6.29254 6.02637 6.31872C6.26345 6.32698 7.0275 6.51577 9.37674 7.86309C12.1716 9.46596 12.647 10.2661 12.7202 10.428C12.7397 10.4025 12.7587 10.3777 12.7774 10.3522C12.6513 10.12 12.0587 9.31363 9.41662 7.79826Z" fill="#F5E600"></path>
<path d="M12.7169 10.4466L12.7101 10.4321C12.6453 10.2867 12.1809 9.48318 9.37139 7.87187C6.98236 6.50118 6.23544 6.33647 6.02524 6.32891L6.01074 6.32821L6.01628 6.31442C6.02936 6.28753 6.04245 6.26065 6.05554 6.23447L6.05897 6.22824L6.06591 6.22894C6.34981 6.25582 7.16428 6.49494 9.42102 7.78912C12.0856 9.31758 12.67 10.1335 12.7858 10.3472L12.7885 10.3528L12.7851 10.3576L12.7273 10.4341L12.7169 10.4466ZM6.04105 6.30976C6.3181 6.32628 7.11676 6.55573 9.38176 7.85474C12.112 9.42124 12.6329 10.2287 12.7211 10.4094C12.7363 10.3901 12.7508 10.3709 12.7652 10.3516C12.6432 10.1311 12.0486 9.31987 9.41075 7.8073C7.17535 6.52411 6.35956 6.27945 6.07012 6.24985C6.06037 6.26909 6.05071 6.28973 6.04105 6.30976Z" fill="#101211"></path>
<path d="M9.75367 7.29172C12.3343 8.77266 12.96 9.57559 13.1046 9.82912C13.1149 9.8098 13.1253 9.79064 13.135 9.77053C13.0315 9.56584 12.4853 8.76713 9.80322 7.2283C7.24184 5.75904 6.56449 5.66812 6.39979 5.68604C6.38951 5.70054 6.37914 5.71565 6.36816 5.73014C6.61351 5.74112 7.39222 5.93755 9.75367 7.29172Z" fill="#F5E600"></path>
<path d="M13.1047 9.84985L13.0956 9.83395C12.9386 9.55899 12.2976 8.7637 9.74812 7.30068C7.42804 5.96996 6.63422 5.75219 6.36753 5.74051L6.34961 5.7398L6.36823 5.71292C6.37579 5.70194 6.38404 5.69087 6.39169 5.6798L6.39371 5.67638L6.39854 5.67567C6.40961 5.67497 6.42129 5.67365 6.43508 5.67365C6.63905 5.67365 7.37499 5.82457 9.80741 7.22013C12.4852 8.75553 13.0378 9.55705 13.1434 9.76587L13.1454 9.7707L13.1434 9.77553C13.1343 9.79275 13.1255 9.81006 13.1164 9.82798L13.1047 9.84985ZM6.38606 5.72188C6.67137 5.74191 7.48373 5.97892 9.75778 7.28347C12.2661 8.72233 12.931 9.51902 13.104 9.80839C13.1109 9.796 13.1169 9.7837 13.1234 9.77052C13.013 9.55626 12.4516 8.75957 9.79784 7.23655C7.36945 5.84452 6.63694 5.69359 6.43499 5.69359C6.42401 5.69359 6.41435 5.6943 6.40469 5.695C6.39915 5.70396 6.3923 5.71292 6.38606 5.72188Z" fill="#101211"></path>
<path d="M7.57605 9.59132C7.97169 10.3501 8.65246 10.7347 9.60133 10.7347C10.5496 10.7347 11.2311 10.3501 11.6266 9.59132C11.9222 9.02277 11.9381 8.44464 11.9381 8.4384V5.33597H7.26465V8.4399C7.26465 8.44464 7.27976 9.02286 7.57605 9.59132Z" fill="white"></path>
<path d="M11.9379 5.33597V8.4384C11.9379 8.44464 11.922 9.02277 11.6264 9.59132C11.4528 9.92347 11.2192 10.1881 10.9319 10.3776C10.5709 10.6147 10.1236 10.7346 9.60126 10.7346C9.07895 10.7346 8.63175 10.6147 8.27072 10.3776C7.98339 10.1881 7.74973 9.92347 7.57606 9.59132C7.27977 9.02277 7.26466 8.44464 7.26466 8.4399V5.33597H11.9379ZM11.9779 5.2967H7.22461V8.4399C7.22461 8.4399 7.27354 10.7746 9.60126 10.7746C11.9291 10.7746 11.978 8.4399 11.978 8.4399L11.9779 5.2967Z" fill="black"></path>
<path d="M7.55862 9.59896C7.83287 10.1268 8.41025 10.7546 9.60174 10.7546C10.7945 10.7546 11.3714 10.1254 11.6449 9.59826C11.9426 9.02487 11.9584 8.44534 11.9584 8.43919V5.31602H7.24512V8.43998C7.24512 8.44534 7.26093 9.02637 7.55862 9.59896ZM8.25249 6.32417H10.951V8.41635C10.9469 8.47697 10.9158 8.84356 10.7284 9.17588C10.5789 9.4418 10.3157 9.74716 9.60174 9.74716C8.88785 9.74716 8.62467 9.4418 8.47517 9.17588C8.28762 8.84373 8.2567 8.47714 8.25257 8.41635L8.25249 6.32417Z" fill="black"></path>
<path d="M7.55862 9.59896C7.83287 10.1268 8.41025 10.7546 9.60174 10.7546C10.7945 10.7546 11.3714 10.1254 11.6449 9.59826C11.9426 9.02487 11.9584 8.44534 11.9584 8.43919V5.31602H7.24512V8.43998C7.24512 8.44534 7.26093 9.02637 7.55862 9.59896ZM8.22842 6.3001H10.9751V8.41776C10.971 8.47784 10.9393 8.84839 10.7498 9.18686C10.6514 9.36177 10.5315 9.49143 10.3826 9.58508C10.1847 9.70772 9.92227 9.77114 9.60174 9.77114C9.28138 9.77114 9.01882 9.70772 8.821 9.58508C8.67219 9.49143 8.5522 9.36177 8.45435 9.18686C8.26417 8.84839 8.23255 8.47776 8.22842 8.41776V6.3001Z" fill="#E32121"></path>
<path d="M7.55862 9.59896C7.83287 10.1268 8.41025 10.7546 9.60174 10.7546C10.7945 10.7546 11.3714 10.1254 11.6449 9.59826C11.9426 9.02487 11.9584 8.44534 11.9584 8.43919V5.31602H7.24512V8.43998C7.24512 8.44534 7.26093 9.02637 7.55862 9.59896ZM7.36695 5.43866H11.8357V8.43779C11.835 8.46607 11.8151 9.00555 11.5367 9.54177C11.1612 10.2653 10.51 10.6326 9.60174 10.6326C8.69697 10.6326 8.0479 10.2681 7.67159 9.54985C7.38979 9.01301 7.36845 8.46511 7.36695 8.43761V5.43866Z" fill="black"></path>
<path d="M7.55862 9.59896C7.83287 10.1268 8.41025 10.7546 9.60174 10.7546C10.7945 10.7546 11.3714 10.1254 11.6449 9.59826C11.9426 9.02487 11.9584 8.44534 11.9584 8.43919V5.31602H7.24512V8.43998C7.24512 8.44534 7.26093 9.02637 7.55862 9.59896ZM7.34359 5.4152H11.8599V8.43849C11.8585 8.46467 11.8392 9.01047 11.5581 9.55214C11.3913 9.87322 11.1666 10.1283 10.8897 10.311C10.5423 10.5403 10.1089 10.6563 9.60174 10.6563C9.09665 10.6563 8.66385 10.5405 8.31802 10.3138C8.04105 10.1325 7.81635 9.87902 7.64963 9.55987C7.36572 9.01758 7.34508 8.46423 7.34368 8.43866V5.41529L7.34359 5.4152Z" fill="white"></path>
<path d="M9.88714 5.95345L9.60183 5.95204L9.31661 5.95345L9.28692 6.20285H9.91674L9.88714 5.95345ZM9.92368 6.20777H9.28007C9.26979 6.20777 9.26074 6.21673 9.26074 6.22709C9.26074 6.23746 9.26979 6.24642 9.28007 6.24642H9.92368C9.93396 6.24642 9.94301 6.23746 9.94301 6.22709C9.94301 6.21673 9.93396 6.20777 9.92368 6.20777ZM9.90304 5.91418H9.3008C9.2975 5.91569 9.2947 5.91812 9.29274 5.92117C9.29078 5.92422 9.28974 5.92777 9.28973 5.9314C9.28973 5.94176 9.29878 5.95072 9.30906 5.95072H9.89478C9.90515 5.95072 9.91411 5.94176 9.91411 5.9314C9.91408 5.92777 9.91303 5.92423 9.91107 5.92119C9.90911 5.91814 9.90633 5.91571 9.90304 5.91418ZM9.92913 5.68604V5.61576H9.8809V5.6516H9.84779V5.61646H9.79825V5.6516H9.76513V5.61576H9.7162V5.68604L9.74721 5.71362L9.74106 5.85629H9.68388L9.67773 5.58405C9.67773 5.58405 9.70803 5.58334 9.70803 5.55717V5.48478H9.65981V5.52132H9.62669V5.48618H9.57715V5.52132H9.54412V5.48478H9.4951V5.55717C9.4951 5.58334 9.5262 5.58405 9.5262 5.58405L9.51996 5.85629H9.46216L9.45663 5.71503C9.45663 5.71503 9.48773 5.71362 9.48773 5.68744V5.61576H9.4388V5.6516H9.40568V5.61646H9.35614V5.6516H9.32302V5.61576H9.2748V5.68744C9.2748 5.71362 9.3051 5.71503 9.3051 5.71503L9.29957 5.85629H9.29403C9.28297 5.85629 9.27471 5.86525 9.27471 5.87561C9.27471 5.88598 9.28297 5.89494 9.29403 5.89494H9.91007C9.92114 5.89494 9.92939 5.88598 9.92939 5.87561C9.92939 5.86525 9.92114 5.85629 9.91007 5.85629H9.90453L9.899 5.71362C9.89891 5.71362 9.92913 5.71222 9.92913 5.68604Z" fill="#F5E600"></path>
<path d="M9.36637 5.75913C9.36909 5.74947 9.37392 5.74534 9.38016 5.74534C9.38701 5.74534 9.39114 5.74947 9.39386 5.75913C9.39558 5.76353 9.39653 5.7682 9.39667 5.77292V5.80947H9.36426V5.77292C9.36435 5.77284 9.36496 5.76598 9.36637 5.75913ZM9.80874 5.75913C9.81146 5.74947 9.81568 5.74534 9.82253 5.74534C9.82868 5.74534 9.83351 5.74947 9.83632 5.75913C9.83757 5.76363 9.83825 5.76826 9.83834 5.77292V5.80947H9.80593V5.77292C9.80601 5.77284 9.80601 5.76598 9.80874 5.75913ZM9.58764 5.67506C9.59036 5.66408 9.59519 5.65916 9.60134 5.65916C9.60758 5.65916 9.61241 5.66399 9.61513 5.67506C9.61639 5.68048 9.61706 5.68602 9.61715 5.69158V5.73568H9.58553V5.69158C9.58553 5.69158 9.58553 5.68332 9.58764 5.67506Z" fill="black"></path>
<path d="M9.92462 6.18914L9.89844 5.96935C9.90783 5.96832 9.91651 5.96389 9.92285 5.9569C9.9292 5.94991 9.93276 5.94084 9.93288 5.9314C9.93281 5.92375 9.93042 5.91631 9.92603 5.91005C9.93359 5.90648 9.93977 5.9005 9.9436 5.89306C9.94743 5.88562 9.9487 5.87712 9.9472 5.86888C9.94571 5.86065 9.94155 5.85313 9.93535 5.8475C9.92916 5.84188 9.92128 5.83845 9.91294 5.83775L9.90811 5.71916C9.9219 5.71643 9.9385 5.70677 9.9385 5.68472V5.6061H9.87086V5.64062H9.85716V5.60689H9.7882V5.64062H9.7745V5.6061H9.70625V5.68472C9.70625 5.70677 9.72276 5.71643 9.73664 5.71916L9.73181 5.83705H9.69254L9.68701 5.58897C9.7008 5.58554 9.7174 5.57588 9.7174 5.55383V5.47529H9.64985V5.51043H9.63606V5.4767H9.56719V5.51043H9.5534V5.47529H9.48506V5.55383C9.48506 5.57588 9.50228 5.58554 9.51607 5.58897L9.51053 5.83705H9.47127L9.46644 5.71916C9.48023 5.71643 9.49674 5.70677 9.49674 5.68472V5.6061H9.42858V5.64062H9.41479V5.60689H9.34592V5.64062H9.33213V5.6061H9.26458V5.68472C9.26458 5.70677 9.28109 5.71643 9.29497 5.71916L9.29005 5.83775C9.28172 5.83846 9.27385 5.8419 9.26767 5.84754C9.26148 5.85317 9.25733 5.86069 9.25585 5.86892C9.25437 5.87715 9.25565 5.88564 9.25948 5.89308C9.26331 5.90052 9.26949 5.90648 9.27705 5.91005C9.27265 5.91631 9.27026 5.92375 9.2702 5.9314C9.2702 5.95072 9.28531 5.96724 9.30463 5.96935L9.27846 6.18914C9.2685 6.18928 9.259 6.19335 9.25203 6.20046C9.24505 6.20756 9.24116 6.21714 9.24121 6.22709C9.24121 6.24844 9.25843 6.26566 9.27977 6.26566H9.92339C9.93359 6.26557 9.94335 6.26148 9.95056 6.25426C9.95777 6.24705 9.96186 6.23729 9.96195 6.22709C9.962 6.21712 9.9581 6.20753 9.95111 6.20042C9.94411 6.19331 9.93459 6.18926 9.92462 6.18914ZM9.60496 6.01617L9.60145 6.01406L9.59802 6.01617C9.51124 6.05061 9.50017 6.15532 9.49947 6.18844H9.45467C9.45607 6.15128 9.46986 6.01687 9.5953 5.96996H9.60778C9.73453 6.01687 9.74692 6.15119 9.74832 6.18844H9.70352C9.70273 6.15532 9.69175 6.05061 9.60496 6.01617ZM9.68411 6.18844H9.5187C9.5202 6.15884 9.52977 6.06642 9.60136 6.03541C9.67243 6.06642 9.68279 6.15875 9.68411 6.18844ZM9.5512 5.96996C9.44922 6.03128 9.43684 6.1526 9.43543 6.18844H9.29769L9.32387 5.96996H9.5512ZM9.76747 6.18844C9.76607 6.1526 9.75377 6.03128 9.65178 5.96996H9.87921L9.90538 6.18844H9.76747ZM9.72548 5.68463V5.62534H9.75517V5.65977H9.80753V5.62604H9.83792V5.65977H9.89027V5.62534H9.91917V5.68463C9.91917 5.69974 9.89994 5.70115 9.89792 5.70115H9.747C9.74411 5.70115 9.72548 5.69983 9.72548 5.68463ZM9.89361 5.83696H9.75096L9.75588 5.72048H9.88887L9.89361 5.83696ZM9.5043 5.55374V5.49453H9.5339V5.52967H9.58634V5.49594H9.61665V5.52967H9.66909V5.49453H9.69799V5.55374C9.69799 5.56964 9.67937 5.57026 9.67664 5.57096H9.52643C9.52362 5.57026 9.5043 5.56955 9.5043 5.55374ZM9.67313 5.83626H9.52977L9.53531 5.59029H9.6676L9.67313 5.83626ZM9.28381 5.68463V5.62534H9.3128V5.65977H9.36516V5.62604H9.39555V5.65977H9.4479V5.62534H9.47751V5.68463C9.47751 5.69974 9.45818 5.70115 9.45616 5.70115H9.30525C9.30305 5.70115 9.28381 5.69983 9.28381 5.68463ZM9.45194 5.83696H9.30929L9.31421 5.72048H9.4472L9.45194 5.83696ZM9.27415 5.87553C9.27415 5.86657 9.281 5.85901 9.28926 5.8569C9.29067 5.8569 9.29198 5.8562 9.29348 5.8562H9.90951C9.92058 5.8562 9.92884 5.86516 9.92884 5.87553C9.92884 5.88589 9.92058 5.89485 9.90951 5.89485H9.29348C9.28835 5.89485 9.28344 5.89282 9.27981 5.88919C9.27619 5.88557 9.27415 5.88065 9.27415 5.87553ZM9.28926 5.9314C9.28926 5.92384 9.29348 5.91761 9.30033 5.91418H9.90257C9.90942 5.91761 9.91355 5.92384 9.91355 5.9314C9.91355 5.94176 9.90459 5.95073 9.89423 5.95073H9.3085C9.30343 5.95057 9.29861 5.94848 9.29504 5.94489C9.29146 5.94129 9.28939 5.93647 9.28926 5.9314ZM9.9233 6.24633H9.27969C9.26941 6.24633 9.26036 6.23737 9.26036 6.22701C9.26036 6.21664 9.26941 6.20768 9.27969 6.20768H9.9233C9.93358 6.20768 9.94263 6.21664 9.94263 6.22701C9.94263 6.23737 9.93358 6.24633 9.9233 6.24633Z" fill="black"></path>
<path d="M8.08956 5.95345L7.80425 5.95204L7.51903 5.95345L7.48934 6.20285H8.11987L8.08956 5.95345ZM8.12611 6.20777H7.48319C7.47807 6.20777 7.47315 6.2098 7.46953 6.21343C7.4659 6.21705 7.46387 6.22197 7.46387 6.22709C7.46387 6.23222 7.4659 6.23714 7.46953 6.24076C7.47315 6.24438 7.47807 6.24642 7.48319 6.24642H8.12611C8.13638 6.24642 8.14543 6.23746 8.14543 6.22709C8.14543 6.21673 8.13638 6.20777 8.12611 6.20777ZM8.10617 5.91418H7.50252C7.49957 5.91598 7.49713 5.91851 7.49544 5.92153C7.49375 5.92454 7.49286 5.92794 7.49286 5.9314C7.49286 5.94176 7.5012 5.95072 7.51227 5.95072H8.09721C8.10757 5.95072 8.11653 5.94176 8.11653 5.9314C8.11636 5.9279 8.11532 5.92449 8.11351 5.92149C8.1117 5.91848 8.10918 5.91597 8.10617 5.91418ZM8.13226 5.68604V5.61576H8.08271V5.6516H8.0496V5.61646H8.00076V5.6516H7.96764V5.61576H7.91871V5.68604L7.94972 5.71362L7.94357 5.85629H7.88568L7.88015 5.58405C7.88015 5.58405 7.91045 5.58334 7.91045 5.55717V5.48478H7.86223V5.52132H7.8292V5.48618H7.77957V5.52132H7.74645V5.48478H7.69814V5.55717C7.69814 5.58334 7.72853 5.58405 7.72853 5.58405L7.723 5.85629H7.66511L7.65958 5.71503C7.65958 5.71503 7.68997 5.71362 7.68997 5.68744V5.61576H7.64175V5.6516H7.60854V5.61646H7.559V5.6516H7.52588V5.61576H7.47766V5.68744C7.47766 5.71362 7.50796 5.71503 7.50796 5.71503L7.50243 5.85629H7.49628C7.48592 5.85629 7.47766 5.86525 7.47766 5.87561C7.47766 5.88598 7.48592 5.89494 7.49628 5.89494H8.11302C8.12268 5.89494 8.13234 5.88598 8.13234 5.87561C8.13234 5.86525 8.12277 5.85629 8.11302 5.85629H8.10748L8.10063 5.71362C8.10063 5.71362 8.13226 5.71222 8.13226 5.68604Z" fill="#F5E600"></path>
<path d="M7.56913 5.75913C7.57185 5.74947 7.57598 5.74534 7.58292 5.74534C7.58907 5.74534 7.5939 5.74947 7.59671 5.75913C7.59758 5.76368 7.59805 5.76829 7.59812 5.77292V5.80947H7.56641V5.77292C7.56641 5.77284 7.56641 5.76598 7.56913 5.75913ZM8.01018 5.75913C8.01291 5.74947 8.01853 5.74534 8.02468 5.74534C8.03083 5.74534 8.03566 5.74947 8.03847 5.75913C8.03972 5.76363 8.04039 5.76826 8.04049 5.77292V5.80947H8.00878V5.77292C8.00878 5.77284 8.00878 5.76598 8.01018 5.75913ZM7.7897 5.67506C7.79242 5.66408 7.79655 5.65916 7.8034 5.65916C7.81034 5.65916 7.81447 5.66399 7.81719 5.67506C7.81887 5.68041 7.81979 5.68597 7.81992 5.69158V5.73568H7.78759V5.69158C7.78759 5.69158 7.78759 5.68332 7.7897 5.67506Z" fill="black"></path>
<path d="M8.12739 6.18914L8.10051 5.96935C8.10711 5.96872 8.11343 5.96641 8.11887 5.96264C8.12431 5.95887 8.12869 5.95376 8.13159 5.94781C8.13449 5.94185 8.13582 5.93525 8.13544 5.92864C8.13505 5.92203 8.13298 5.91563 8.12941 5.91005C8.13582 5.90687 8.14122 5.90195 8.14499 5.89587C8.14876 5.88979 8.15076 5.88277 8.15076 5.87561C8.15083 5.86602 8.14723 5.85675 8.1407 5.84972C8.13417 5.84268 8.1252 5.8384 8.11562 5.83775L8.11149 5.71916C8.12529 5.71643 8.14189 5.70677 8.14189 5.68472V5.6061H8.07293V5.64062H8.05923V5.60689H7.99098V5.64062H7.97727V5.6061H7.90884V5.68472C7.90884 5.70677 7.92536 5.71643 7.93924 5.71916L7.93511 5.83705H7.89514L7.88961 5.58897C7.90331 5.58554 7.91991 5.57588 7.91991 5.55383V5.47529H7.85236V5.51043H7.83857V5.4767H7.7697V5.51043H7.75591V5.47529H7.68836V5.55383C7.68836 5.57588 7.70488 5.58554 7.71867 5.58897L7.71313 5.83705H7.67457L7.66904 5.71916C7.68283 5.71643 7.69934 5.70677 7.69934 5.68472V5.6061H7.63179V5.64062H7.61809V5.60689H7.54922V5.64062H7.53552V5.6061H7.46788V5.68472C7.46788 5.70677 7.48439 5.71643 7.49757 5.71916L7.49265 5.83775C7.48321 5.83859 7.47442 5.84295 7.46804 5.84996C7.46166 5.85698 7.45816 5.86613 7.45822 5.87561C7.45822 5.89081 7.46647 5.9039 7.47886 5.91005C7.47488 5.91643 7.47294 5.92388 7.47332 5.9314C7.47332 5.95072 7.48843 5.96724 7.50776 5.96935L7.48158 6.18914C7.47162 6.18928 7.46213 6.19335 7.45515 6.20046C7.44818 6.20756 7.44429 6.21714 7.44434 6.22709C7.44434 6.24844 7.46085 6.26566 7.4829 6.26566H8.12581C8.13088 6.26567 8.1359 6.26468 8.14058 6.26275C8.14527 6.26081 8.14952 6.25797 8.15311 6.25439C8.15669 6.25081 8.15953 6.24655 8.16146 6.24187C8.1634 6.23718 8.16439 6.23216 8.16438 6.22709C8.16446 6.22217 8.16356 6.21728 8.16174 6.2127C8.15993 6.20812 8.15722 6.20395 8.15378 6.20042C8.15035 6.19689 8.14625 6.19408 8.14172 6.19215C8.13719 6.19021 8.13232 6.18919 8.12739 6.18914ZM7.80835 6.01617L7.80414 6.01406L7.80071 6.01617C7.71322 6.05061 7.70365 6.15532 7.70215 6.18844H7.65735C7.65876 6.15128 7.67325 6.01687 7.79799 5.96996H7.81108C7.93722 6.01687 7.95022 6.15119 7.95162 6.18844H7.90612C7.9048 6.15532 7.89514 6.05061 7.80835 6.01617ZM7.8868 6.18844H7.72148C7.72288 6.15884 7.73246 6.06642 7.80405 6.03541C7.87582 6.06642 7.88548 6.15875 7.8868 6.18844ZM7.75389 5.96996C7.65191 6.03128 7.64022 6.1526 7.63882 6.18844H7.50099L7.52717 5.96996H7.75389ZM7.97025 6.18844C7.96884 6.1526 7.95654 6.03128 7.85456 5.96996H8.08128L8.10745 6.18844H7.97025ZM7.92817 5.68463V5.62534H7.95786V5.65977H8.01021V5.62604H8.0399V5.65977H8.09226V5.62534H8.12195V5.68463C8.12195 5.69974 8.10333 5.70115 8.1006 5.70115H7.9496C7.94749 5.70115 7.92817 5.69983 7.92817 5.68463ZM8.0963 5.83696H7.95443L7.95856 5.72048H8.09217L8.0963 5.83696ZM7.70769 5.55374V5.49453H7.73659V5.52967H7.78903V5.49594H7.81933V5.52967H7.87177V5.49453H7.90067V5.55374C7.90067 5.56964 7.88135 5.57026 7.88003 5.57096H7.7285C7.72701 5.57026 7.70769 5.56955 7.70769 5.55374ZM7.87582 5.83626H7.73246L7.73799 5.59029H7.87037L7.87582 5.83626ZM7.4872 5.68463V5.62534H7.51619V5.65977H7.56854V5.62604H7.59894V5.65977H7.65129V5.62534H7.68028V5.68463C7.68028 5.69974 7.66095 5.70115 7.65885 5.70115H7.50785C7.50583 5.70115 7.4872 5.69983 7.4872 5.68463ZM7.65533 5.83696H7.51206L7.51689 5.72048H7.64989L7.65533 5.83696ZM7.47754 5.87553C7.47754 5.86657 7.48307 5.85901 7.49124 5.8569C7.49326 5.8569 7.49476 5.8562 7.49616 5.8562H8.1122C8.12256 5.8562 8.13152 5.86516 8.13152 5.87553C8.13152 5.88589 8.12256 5.89485 8.1122 5.89485H7.49616C7.49115 5.89472 7.48638 5.89261 7.4829 5.889C7.47942 5.88538 7.47749 5.88055 7.47754 5.87553ZM7.49265 5.9314C7.49265 5.92384 7.49687 5.91761 7.50231 5.91418H8.10596C8.11149 5.91761 8.11624 5.92384 8.11624 5.9314C8.11624 5.94176 8.10728 5.95073 8.09691 5.95073H7.51197C7.50685 5.95073 7.50193 5.94869 7.49831 5.94506C7.49469 5.94144 7.49265 5.93652 7.49265 5.9314ZM8.12599 6.24633H7.48307C7.47795 6.24633 7.47303 6.2443 7.46941 6.24067C7.46579 6.23705 7.46375 6.23213 7.46375 6.22701C7.46375 6.22188 7.46579 6.21696 7.46941 6.21334C7.47303 6.20972 7.47795 6.20768 7.48307 6.20768H8.12599C8.13627 6.20768 8.14531 6.21664 8.14531 6.22701C8.14531 6.23737 8.13627 6.24633 8.12599 6.24633Z" fill="black"></path>
<path d="M8.08957 7.76724L7.80426 7.76584L7.51904 7.76724L7.48935 8.01673H8.11988L8.08957 7.76724ZM8.12611 8.02218H7.4832C7.48064 8.02212 7.4781 8.02258 7.47573 8.02353C7.47336 8.02448 7.47121 8.0259 7.4694 8.02771C7.46759 8.02951 7.46617 8.03167 7.46522 8.03404C7.46427 8.03641 7.46381 8.03895 7.46387 8.04151C7.46387 8.05196 7.47222 8.06083 7.4832 8.06083H8.12611C8.13639 8.06083 8.14544 8.05187 8.14544 8.04151C8.14544 8.03638 8.1434 8.03146 8.13978 8.02784C8.13615 8.02421 8.13124 8.02218 8.12611 8.02218ZM8.10617 7.72798H7.50252C7.49959 7.72979 7.49716 7.73232 7.49547 7.73534C7.49378 7.73835 7.49288 7.74174 7.49286 7.74519C7.49286 7.75556 7.50121 7.76452 7.51227 7.76452H8.09721C8.10758 7.76452 8.11654 7.75556 8.11654 7.74519C8.11636 7.74169 8.11533 7.73829 8.11352 7.73528C8.11171 7.73228 8.10918 7.72977 8.10617 7.72798ZM8.13226 7.50054V7.42956H8.08272V7.4654H8.0496V7.43096H8.00076V7.4654H7.96765V7.42956H7.91872V7.50054C7.91872 7.52672 7.94973 7.52742 7.94973 7.52742L7.94358 7.67008H7.88569L7.88015 7.39855C7.88015 7.39855 7.91046 7.39784 7.91046 7.37096V7.29928H7.86223V7.33582H7.82921V7.29998H7.77958V7.33582H7.74646V7.29928H7.69815V7.37096C7.69815 7.39784 7.72854 7.39855 7.72854 7.39855L7.72301 7.67008H7.66512L7.65958 7.52883C7.65958 7.52883 7.68998 7.52742 7.68998 7.50133V7.42965H7.64175V7.46619H7.60855V7.43105H7.55901V7.46619H7.52589V7.42965H7.47766V7.50133L7.50797 7.52883L7.50244 7.67008H7.49629C7.49128 7.67022 7.48653 7.67231 7.48305 7.67591C7.47957 7.6795 7.47764 7.68432 7.47766 7.68932C7.47766 7.69969 7.48592 7.70865 7.49629 7.70865H8.11302C8.11808 7.70843 8.12287 7.70633 8.12645 7.70275C8.13003 7.69917 8.13213 7.69438 8.13235 7.68932C8.13211 7.68428 8.13 7.67951 8.12642 7.67595C8.12284 7.67239 8.11806 7.6703 8.11302 7.67008H8.10749L8.10064 7.52742C8.10064 7.52742 8.13226 7.52672 8.13226 7.50054Z" fill="#F5E600"></path>
<path d="M7.56913 7.57292C7.57185 7.56396 7.57598 7.55913 7.58292 7.55913C7.58907 7.55913 7.5939 7.56396 7.59671 7.57292C7.59758 7.57747 7.59805 7.58208 7.59812 7.58671V7.62326H7.56641V7.58671C7.56641 7.58671 7.56641 7.57977 7.56913 7.57292ZM8.01018 7.57292C8.01291 7.56396 8.01853 7.55913 8.02468 7.55913C8.03083 7.55913 8.03566 7.56396 8.03847 7.57292C8.03972 7.57742 8.04039 7.58205 8.04049 7.58671V7.62326H8.00878V7.58671C8.00878 7.58671 8.00878 7.57977 8.01018 7.57292ZM7.7897 7.48885C7.79242 7.47848 7.79655 7.47304 7.8034 7.47304C7.81034 7.47304 7.81447 7.47857 7.81719 7.48885C7.81887 7.4942 7.81979 7.49976 7.81992 7.50537V7.54947H7.78759V7.50537C7.78759 7.50537 7.78759 7.49711 7.7897 7.48885Z" fill="black"></path>
<path d="M8.12708 8.00294L8.1002 7.78314C8.10973 7.78235 8.11862 7.77802 8.12511 7.77099C8.1316 7.76396 8.13522 7.75476 8.13525 7.7452C8.13544 7.73762 8.1333 7.73016 8.1291 7.72385C8.13551 7.72064 8.1409 7.71571 8.14467 7.70961C8.14844 7.70352 8.15044 7.69649 8.15045 7.68932C8.15049 7.67973 8.14689 7.67048 8.14036 7.66345C8.13384 7.65642 8.12488 7.65213 8.11531 7.65146L8.11118 7.53295C8.12497 7.53014 8.14158 7.52048 8.14158 7.49843V7.41989H8.07262V7.45503H8.05892V7.4206H7.99066V7.45503H7.97696V7.41989H7.90853V7.49843C7.90853 7.52048 7.92505 7.53014 7.93892 7.53295L7.9348 7.65076H7.89483L7.88929 7.40268C7.903 7.39995 7.9196 7.39029 7.9196 7.36824V7.28962H7.85205V7.32476H7.83826V7.29023H7.76939V7.32476H7.7556V7.28962H7.68805V7.36824C7.68805 7.39029 7.70456 7.39995 7.71835 7.40268L7.71282 7.65076H7.67426L7.66872 7.53295C7.68251 7.53014 7.69903 7.52048 7.69903 7.49843V7.41989H7.63148V7.45503H7.61777V7.4206H7.54891V7.45503H7.5352V7.41989H7.46757V7.49843C7.46757 7.52048 7.48408 7.53014 7.49726 7.53295L7.49234 7.65146C7.48289 7.6523 7.47411 7.65666 7.46773 7.66367C7.46135 7.67069 7.45784 7.67984 7.4579 7.68932C7.4579 7.70452 7.46616 7.71761 7.47855 7.72385C7.47455 7.73023 7.47262 7.73768 7.47301 7.7452C7.47301 7.76522 7.48812 7.78104 7.50745 7.78314L7.48127 8.00294C7.47104 8.00312 7.4613 8.00735 7.45419 8.0147C7.44709 8.02206 7.44319 8.03194 7.44337 8.04216C7.44354 8.05239 7.44777 8.06213 7.45513 8.06924C7.46248 8.07635 7.47236 8.08025 7.48259 8.08007H8.1255C8.1357 8.07998 8.14545 8.07589 8.15267 8.06867C8.15988 8.06146 8.16397 8.05171 8.16406 8.04151C8.16425 8.03149 8.16047 8.02181 8.15353 8.01459C8.1466 8.00736 8.13709 8.00317 8.12708 8.00294ZM7.80804 7.82997L7.80382 7.82856L7.8004 7.82997C7.71291 7.8644 7.70333 7.96912 7.70184 8.00294H7.65704C7.65845 7.96578 7.67294 7.83067 7.79767 7.78385H7.81076C7.9369 7.83137 7.9499 7.96508 7.95131 8.00294H7.90581C7.90449 7.96912 7.89483 7.8644 7.80804 7.82997ZM7.88648 8.00294H7.72116C7.72257 7.97263 7.73214 7.8803 7.80374 7.84929C7.8755 7.8803 7.88517 7.97263 7.88648 8.00294ZM7.75358 7.78376C7.65159 7.84508 7.63991 7.96701 7.63851 8.00285H7.50068L7.52686 7.78376H7.75358ZM7.96993 8.00294C7.96853 7.9671 7.95623 7.84517 7.85424 7.78385H8.08096L8.10714 8.00294H7.96993ZM7.92786 7.49843V7.43922H7.95755V7.47436H8.0099V7.44063H8.03959V7.47436H8.09194V7.43922H8.12164V7.49843C8.12164 7.51363 8.10301 7.51495 8.10029 7.51495H7.94929C7.94718 7.51503 7.92786 7.51363 7.92786 7.49843ZM8.09599 7.65076H7.95412L7.95825 7.53427H8.09186L8.09599 7.65076ZM7.70737 7.36824V7.30894H7.73627V7.34408H7.78872V7.30956H7.81902V7.34408H7.87146V7.30894H7.90036V7.36824C7.90036 7.38335 7.88104 7.38476 7.87972 7.38476L7.87014 7.38546H7.73504L7.72819 7.38476C7.7267 7.38476 7.70737 7.38335 7.70737 7.36824ZM7.8755 7.65006H7.73214L7.73768 7.4047H7.87006L7.8755 7.65006ZM7.48689 7.49843V7.43922H7.51588V7.47436H7.56823V7.44063H7.59863V7.47436H7.65098V7.43922H7.67997V7.49843C7.67997 7.51363 7.66064 7.51495 7.65853 7.51495H7.50753C7.50551 7.51503 7.48689 7.51363 7.48689 7.49843ZM7.65502 7.65076H7.51175L7.51658 7.53427H7.64957L7.65502 7.65076ZM7.47723 7.68932C7.47723 7.68036 7.48276 7.67351 7.49093 7.67079C7.49295 7.67079 7.49445 7.67009 7.49585 7.67009H8.11188C8.12225 7.67009 8.13121 7.67905 8.13121 7.68932C8.13121 7.69969 8.12225 7.70865 8.11188 7.70865H7.49585C7.49083 7.70851 7.48607 7.70641 7.48259 7.7028C7.4791 7.69918 7.47718 7.69434 7.47723 7.68932ZM7.49234 7.7452C7.49234 7.73764 7.49655 7.7314 7.502 7.72798H8.10565C8.11118 7.73149 8.11593 7.73764 8.11593 7.7452C8.11593 7.75556 8.10697 7.76452 8.0966 7.76452H7.51166C7.50654 7.76452 7.50162 7.76249 7.498 7.75886C7.49437 7.75524 7.49234 7.75032 7.49234 7.7452ZM8.12568 8.06083H7.48276C7.47764 8.06083 7.47272 8.0588 7.4691 8.05517C7.46547 8.05155 7.46344 8.04663 7.46344 8.04151C7.46344 8.03052 7.47178 8.02218 7.48276 8.02218H8.12568C8.1308 8.02218 8.13572 8.02422 8.13934 8.02784C8.14297 8.03146 8.145 8.03638 8.145 8.04151C8.145 8.05196 8.13595 8.06083 8.12568 8.06083Z" fill="black"></path>
<path d="M8.48201 9.47079L8.27936 9.67126L8.07961 9.87383L8.23394 10.0717L8.45724 9.84836L8.67974 9.62663L8.48201 9.47079ZM8.688 9.62514L8.23315 10.08C8.22952 10.0837 8.22748 10.0886 8.22748 10.0938C8.22748 10.0989 8.22952 10.1039 8.23315 10.1075C8.24071 10.1144 8.25318 10.1144 8.26003 10.1075L8.71488 9.65263C8.72314 9.64437 8.72314 9.63199 8.71488 9.62514C8.70803 9.61749 8.69555 9.61749 8.688 9.62514ZM8.46541 9.43143L8.03955 9.85802C8.03815 9.86417 8.03955 9.87181 8.04438 9.87735C8.05194 9.8849 8.06441 9.8849 8.07126 9.87735L8.48544 9.46314C8.49299 9.45559 8.49299 9.44312 8.48544 9.43626C8.4806 9.43073 8.47226 9.42941 8.46541 9.43143ZM8.32346 9.2524C8.30483 9.23369 8.27391 9.20206 8.27391 9.20206L8.23939 9.2365L8.26416 9.26136L8.24071 9.28543L8.21594 9.26065L8.19872 9.27779L8.18159 9.29571L8.20636 9.32048L8.18291 9.34402L8.15664 9.31846L8.12291 9.35228C8.12291 9.35228 8.15392 9.38382 8.17316 9.40253C8.19108 9.42115 8.21313 9.40051 8.21313 9.40051L8.31098 9.50522L8.26961 9.5459L8.07319 9.35764C8.07319 9.35764 8.09454 9.33559 8.07521 9.31697L8.02427 9.26593L7.98974 9.30054L8.01601 9.32601L7.99247 9.34947L7.9677 9.3247L7.94978 9.34191L7.93265 9.35913L7.95812 9.3847L7.93467 9.40815L7.9084 9.38259L7.87397 9.41641C7.87397 9.41641 7.90559 9.44883 7.92492 9.46736C7.94424 9.48599 7.96629 9.46543 7.96629 9.46543L8.15375 9.66115L8.11307 9.70253L8.00898 9.60607C8.00898 9.60607 8.02962 9.58402 8.0117 9.5654C7.99238 9.54678 7.96076 9.51506 7.96076 9.51506L7.92623 9.5488L7.95241 9.57436L7.92834 9.5979L7.90357 9.57313L7.88635 9.59105L7.86843 9.60827L7.89329 9.63295L7.86984 9.6565L7.84498 9.63102L7.81055 9.66546L7.86079 9.71579C7.87942 9.73442 7.90146 9.71386 7.90146 9.71386L7.998 9.81796L7.99379 9.82209C7.98693 9.82965 7.98693 9.84221 7.99379 9.84897C7.99551 9.85093 7.99763 9.8525 8.00001 9.85358C8.00239 9.85466 8.00497 9.85521 8.00758 9.85521C8.01019 9.85521 8.01277 9.85466 8.01514 9.85358C8.01752 9.8525 8.01964 9.85093 8.02137 9.84897L8.45689 9.41342C8.46374 9.40666 8.46374 9.39418 8.45689 9.38654C8.45322 9.3829 8.44826 9.38086 8.4431 9.38086C8.43793 9.38086 8.43297 9.3829 8.4293 9.38654L8.42518 9.38997L8.32047 9.29351C8.32073 9.29307 8.34138 9.27102 8.32346 9.2524Z" fill="#F5E600"></path>
<path d="M7.97726 9.70095C7.97242 9.69269 7.97242 9.68575 7.97726 9.68162C7.98138 9.6767 7.98824 9.6767 7.99658 9.68162C8.00273 9.68435 8.00756 9.68918 8.00756 9.68918L8.03374 9.71536L8.01099 9.73811L7.98551 9.71193C7.98204 9.70887 7.97923 9.70514 7.97726 9.70095ZM8.28936 9.38812C8.28444 9.37978 8.28444 9.37363 8.29006 9.36871C8.29419 9.36458 8.30104 9.36458 8.30939 9.36871C8.31492 9.37213 8.32037 9.37705 8.32037 9.37705L8.34584 9.40323L8.32309 9.42528L8.29691 9.39981C8.29691 9.39919 8.29278 9.39497 8.28936 9.38812ZM8.07362 9.4859C8.06808 9.47632 8.06808 9.46877 8.07221 9.46385C8.07634 9.45972 8.08398 9.46042 8.09286 9.46587C8.09788 9.46871 8.10252 9.47219 8.10665 9.47623L8.13695 9.50654L8.1149 9.53L8.08328 9.49846C8.08337 9.49846 8.07775 9.49284 8.07362 9.4859Z" fill="black"></path>
<path d="M8.67468 9.61064L8.50102 9.47351C8.50721 9.46633 8.51044 9.45707 8.51007 9.4476C8.50969 9.43812 8.50573 9.42914 8.49899 9.42247C8.49367 9.41712 8.48699 9.41332 8.47967 9.41149C8.48218 9.40478 8.48266 9.39748 8.48105 9.3905C8.47944 9.38352 8.47581 9.37716 8.47062 9.37222C8.4637 9.36544 8.4545 9.36149 8.44482 9.36113C8.43514 9.36077 8.42567 9.36404 8.41827 9.37029L8.33148 9.29035C8.33974 9.27779 8.34387 9.26004 8.32867 9.24414L8.27359 9.18836L8.22537 9.23659L8.25014 9.26145L8.24048 9.27111L8.21571 9.24695L8.16748 9.29588L8.19093 9.31943L8.18136 9.32979L8.1565 9.30502L8.10898 9.35263L8.16484 9.40842C8.17995 9.42423 8.19858 9.41878 8.21035 9.41184L8.29028 9.49873L8.2627 9.52622L8.08359 9.35465C8.09044 9.34297 8.09598 9.32365 8.08087 9.30854L8.0243 9.25275L7.97678 9.30098L8.00084 9.32496L7.99118 9.33533L7.96773 9.31135L7.9188 9.35957L7.94287 9.38356L7.93329 9.39392L7.90843 9.36906L7.86021 9.41667L7.91608 9.47255C7.93198 9.48766 7.94981 9.48282 7.96219 9.47518L8.13375 9.65439L8.10555 9.68268L8.01947 9.60274C8.02702 9.59105 8.03185 9.57243 8.01604 9.55671L7.96088 9.50162L7.91265 9.54915L7.93742 9.57392L7.92776 9.58429L7.90369 9.55943L7.85476 9.60845L7.87953 9.63243L7.86917 9.64209L7.8451 9.61732L7.79688 9.66555L7.85204 9.72072C7.86785 9.73662 7.88647 9.7317 7.89816 9.72414L7.97809 9.81094C7.97188 9.81823 7.96864 9.82759 7.96901 9.83716C7.96939 9.84673 7.97335 9.85581 7.98011 9.86259C7.98525 9.86771 7.99169 9.87132 7.99874 9.87303C8.00579 9.87473 8.01317 9.87447 8.02008 9.87225C8.02157 9.87955 8.02514 9.88627 8.03036 9.89158C8.03724 9.89814 8.04623 9.90202 8.05572 9.90252C8.06521 9.90302 8.07457 9.9001 8.0821 9.8943L8.21852 10.068C8.21177 10.0753 8.20814 10.0849 8.2084 10.0948C8.20866 10.1047 8.2128 10.1141 8.21992 10.121C8.22342 10.1246 8.2276 10.1275 8.23221 10.1294C8.23683 10.1314 8.24179 10.1324 8.2468 10.1324C8.25181 10.1324 8.25677 10.1314 8.26139 10.1294C8.26601 10.1275 8.27019 10.1246 8.27368 10.121L8.72853 9.66625C8.73212 9.66268 8.73497 9.65844 8.73691 9.65377C8.73886 9.64909 8.73986 9.64408 8.73986 9.63902C8.73986 9.63396 8.73886 9.62894 8.73691 9.62427C8.73497 9.6196 8.73212 9.61535 8.72853 9.61179C8.72509 9.60814 8.72096 9.60521 8.71637 9.60317C8.71179 9.60114 8.70685 9.60004 8.70184 9.59993C8.69683 9.59982 8.69185 9.60072 8.68718 9.60256C8.68252 9.60439 8.67827 9.60714 8.67468 9.61064ZM8.32735 9.71413L8.32322 9.71606L8.32182 9.71878C8.28457 9.80488 8.35221 9.88701 8.37426 9.91099L8.34255 9.94209C8.31778 9.91521 8.23231 9.80979 8.28738 9.68848L8.29643 9.67943C8.41976 9.62365 8.52315 9.70903 8.55073 9.73451L8.51911 9.76622C8.49408 9.74373 8.41282 9.67679 8.32735 9.71413ZM8.50514 9.78028L8.38796 9.89747C8.36732 9.87542 8.30943 9.80303 8.33842 9.73073C8.41142 9.70227 8.4831 9.76016 8.50514 9.78028ZM8.25638 9.71957C8.22818 9.83536 8.3053 9.92988 8.32937 9.95588L8.23231 10.0537L8.0958 9.87998L8.25638 9.71957ZM8.56444 9.72168C8.53817 9.69682 8.44313 9.61969 8.32735 9.64859L8.48863 9.48801L8.66089 9.62382L8.56444 9.72168ZM8.17855 9.39427L8.13586 9.3522L8.1565 9.33155L8.18136 9.35632L8.21852 9.31908L8.19506 9.29553L8.21571 9.27348L8.24048 9.29826L8.27702 9.2611L8.25295 9.23624L8.27359 9.21559L8.31497 9.25767C8.32595 9.26874 8.31356 9.28323 8.31224 9.28455L8.30952 9.28605L8.20481 9.39146C8.20332 9.39357 8.18962 9.40526 8.17855 9.39427ZM8.40456 9.38321L8.3039 9.48449L8.22537 9.3984L8.31901 9.30476L8.40456 9.38321ZM7.92987 9.4584L7.88779 9.41632L7.90843 9.39629L7.93329 9.42028L7.97045 9.38303L7.94568 9.35905L7.96773 9.3384L7.99118 9.36186L8.02843 9.3247L8.00365 9.30072L8.0243 9.28007L8.06699 9.32215C8.07797 9.33313 8.06497 9.34684 8.06286 9.34903L8.05733 9.35527L7.96149 9.45102L7.95666 9.45585C7.95534 9.457 7.94085 9.46947 7.92987 9.4584ZM8.24882 9.53905L8.14684 9.64025L7.9773 9.46253L8.07094 9.3688L8.24882 9.53905ZM7.86566 9.70719L7.82428 9.66511L7.84492 9.64455L7.86899 9.66924L7.90624 9.63199L7.88217 9.60801L7.90352 9.58666L7.92758 9.61064L7.96483 9.57348L7.94006 9.54862L7.9607 9.52859L8.00207 9.56997C8.01305 9.58095 8.00067 9.59553 7.99935 9.59694L7.99794 9.59834L7.89324 9.70306L7.89254 9.70376C7.89122 9.70508 7.87672 9.71755 7.86566 9.70719ZM8.09238 9.6955L7.99109 9.79671L7.91256 9.71123L8.0062 9.61679L8.09238 9.6955ZM7.99382 9.84836C7.98696 9.84221 7.98697 9.83246 7.99109 9.8249C7.9925 9.8235 7.9925 9.82209 7.99382 9.82139L8.42934 9.38584C8.433 9.3822 8.43796 9.38016 8.44313 9.38016C8.44829 9.38016 8.45325 9.3822 8.45692 9.38584C8.46377 9.3934 8.46377 9.40587 8.45692 9.41272L8.0214 9.84827C8.01314 9.85679 8.00146 9.85679 7.99382 9.84836ZM8.04415 9.87735C8.04193 9.87471 8.04033 9.87159 8.0395 9.86824C8.03866 9.8649 8.0386 9.8614 8.03932 9.85802L8.46518 9.43143C8.47203 9.4295 8.48037 9.43073 8.4852 9.43635C8.49276 9.4432 8.49276 9.45559 8.4852 9.46323L8.07103 9.87744C8.06418 9.8849 8.0517 9.8849 8.04415 9.87735ZM8.71465 9.65263L8.2598 10.1075C8.25295 10.1144 8.24048 10.1144 8.23292 10.1075C8.22537 10.0993 8.22537 10.0875 8.23292 10.08L8.68777 9.62514C8.69532 9.61758 8.70779 9.61758 8.71465 9.62514C8.7229 9.63199 8.7229 9.64455 8.71465 9.65263Z" fill="black"></path>
<path d="M11.685 5.95345L11.3997 5.95204L11.1145 5.95345L11.0848 6.20285H11.7146L11.685 5.95345ZM11.7208 6.20777H11.0779C11.0676 6.20777 11.0586 6.21673 11.0586 6.22709C11.0586 6.23746 11.0676 6.24642 11.0779 6.24642H11.7208C11.726 6.24642 11.7309 6.24438 11.7345 6.24076C11.7381 6.23714 11.7402 6.23222 11.7402 6.22709C11.7402 6.22197 11.7381 6.21705 11.7345 6.21343C11.7309 6.2098 11.726 6.20777 11.7208 6.20777ZM11.7008 5.91418H11.0979C11.0948 5.91595 11.0923 5.91845 11.0905 5.92146C11.0887 5.92447 11.0876 5.92789 11.0875 5.9314C11.0875 5.94176 11.0965 5.95072 11.1068 5.95072H11.6918C11.6962 5.95069 11.7003 5.94921 11.7037 5.94653C11.7071 5.94385 11.7095 5.94012 11.7105 5.93593C11.7116 5.93174 11.7112 5.92733 11.7094 5.92339C11.7076 5.91945 11.7046 5.91621 11.7008 5.91418ZM11.727 5.68604V5.61576H11.6781V5.6516H11.6449V5.61646H11.5954V5.6516H11.5623V5.61576H11.5141V5.68604L11.5444 5.71362L11.5388 5.85629H11.4809L11.4754 5.58405C11.4754 5.58405 11.5057 5.58334 11.5057 5.55717V5.48478H11.4575V5.52132H11.4244V5.48618H11.3748V5.52132H11.3417V5.48478H11.2935V5.55717C11.2935 5.58334 11.3239 5.58405 11.3239 5.58405L11.3183 5.85629H11.2605L11.2543 5.71503C11.2543 5.71503 11.2854 5.71362 11.2854 5.68744V5.61576H11.2365V5.6516H11.2034V5.61646H11.1544V5.6516H11.1206V5.61576H11.0724V5.68744C11.0724 5.71362 11.1034 5.71503 11.1034 5.71503L11.0972 5.85629H11.0917C11.0814 5.85629 11.0725 5.86525 11.0725 5.87561C11.0725 5.88598 11.0814 5.89494 11.0917 5.89494H11.7078C11.7181 5.89494 11.7272 5.88598 11.7272 5.87561C11.7272 5.86525 11.7181 5.85629 11.7078 5.85629H11.7023L11.6961 5.71362C11.6961 5.71362 11.727 5.71222 11.727 5.68604Z" fill="#F5E600"></path>
<path d="M11.1642 5.75913C11.1669 5.74947 11.1718 5.74534 11.178 5.74534C11.1849 5.74534 11.1897 5.74947 11.1917 5.75913C11.193 5.76362 11.1937 5.76825 11.1938 5.77292V5.80947H11.1621V5.77292C11.1621 5.77284 11.1621 5.76598 11.1642 5.75913ZM11.6059 5.75913C11.6086 5.74947 11.6135 5.74534 11.6197 5.74534C11.6265 5.74534 11.6314 5.74947 11.6334 5.75913C11.6351 5.76353 11.6361 5.7682 11.6362 5.77292V5.80947H11.6038V5.77292C11.6039 5.77284 11.6045 5.76598 11.6059 5.75913ZM11.3854 5.67506C11.3881 5.66408 11.3923 5.65916 11.3991 5.65916C11.4053 5.65916 11.4102 5.66399 11.4129 5.67506C11.4142 5.68048 11.4148 5.68602 11.4149 5.69158V5.73568H11.3825V5.69158C11.3826 5.69158 11.3833 5.68332 11.3854 5.67506Z" fill="black"></path>
<path d="M11.7219 6.18914L11.6957 5.96935C11.7051 5.96832 11.7137 5.96389 11.7201 5.9569C11.7264 5.94991 11.73 5.94084 11.7301 5.9314C11.7302 5.92392 11.7283 5.91655 11.7246 5.91005C11.732 5.90634 11.7381 5.90029 11.7418 5.89281C11.7455 5.88534 11.7467 5.87686 11.7451 5.86867C11.7435 5.86048 11.7393 5.85302 11.7331 5.84744C11.727 5.84186 11.7191 5.83845 11.7108 5.83775L11.706 5.71916C11.7197 5.71643 11.7363 5.70677 11.7363 5.68472V5.6061H11.6681V5.64062H11.6544V5.60689H11.5861V5.64062H11.5717V5.6061H11.5041V5.68472C11.5041 5.70677 11.5206 5.71643 11.5345 5.71916L11.5297 5.83705H11.4904L11.4849 5.58897C11.4987 5.58554 11.5153 5.57588 11.5153 5.55383V5.47529H11.4477V5.51043H11.4339V5.4767H11.365V5.51043H11.3512V5.47529H11.2836V5.55383C11.2836 5.57588 11.3001 5.58554 11.3139 5.58897L11.3084 5.83705H11.2691L11.2643 5.71916C11.2781 5.71643 11.2946 5.70677 11.2946 5.68472V5.6061H11.2264V5.64062H11.2126V5.60689H11.1445V5.64062H11.13V5.6061H11.0624V5.68472C11.0624 5.70677 11.0789 5.71643 11.0928 5.71916L11.0879 5.83775C11.0783 5.83844 11.0694 5.84274 11.0629 5.84977C11.0564 5.8568 11.0528 5.86604 11.0529 5.87561C11.0529 5.88277 11.0549 5.88977 11.0587 5.89585C11.0624 5.90193 11.0678 5.90685 11.0742 5.91005C11.0706 5.91559 11.0686 5.92194 11.0682 5.92851C11.0677 5.93507 11.069 5.94163 11.0718 5.94757C11.0747 5.95351 11.079 5.95863 11.0843 5.96244C11.0897 5.96625 11.0959 5.96863 11.1025 5.96935L11.0763 6.18914C11.0664 6.18928 11.0569 6.19335 11.0499 6.20046C11.0429 6.20756 11.039 6.21714 11.0391 6.22709C11.0391 6.24844 11.0563 6.26566 11.0776 6.26566H11.7205C11.7256 6.26573 11.7307 6.26478 11.7354 6.26287C11.7401 6.26095 11.7443 6.25811 11.7479 6.25452C11.7515 6.25092 11.7544 6.24664 11.7563 6.24193C11.7582 6.23722 11.7591 6.23217 11.759 6.22709C11.7591 6.21714 11.7552 6.20755 11.7483 6.20044C11.7413 6.19332 11.7318 6.18926 11.7219 6.18914ZM11.4029 6.01617L11.3994 6.01406L11.3953 6.01617C11.3085 6.05061 11.2981 6.15532 11.2974 6.18844H11.2526C11.254 6.15128 11.2678 6.01687 11.3925 5.96996H11.4056C11.5324 6.01687 11.5455 6.15119 11.5462 6.18844H11.5014C11.5 6.15532 11.4897 6.05061 11.4029 6.01617ZM11.482 6.18844H11.3166C11.318 6.15884 11.3277 6.06642 11.3993 6.03541C11.4711 6.06642 11.4806 6.15875 11.482 6.18844ZM11.3491 5.96996C11.2471 6.03128 11.2346 6.1526 11.2333 6.18844H11.0962L11.1216 5.96996H11.3491ZM11.5654 6.18844C11.564 6.1526 11.5516 6.03128 11.4497 5.96996H11.6764L11.7026 6.18844H11.5654ZM11.5234 5.68463V5.62534H11.5524V5.65977H11.6055V5.62604H11.6351V5.65977H11.6875V5.62534H11.7171V5.68463C11.7171 5.69974 11.6979 5.70115 11.6959 5.70115H11.5449C11.542 5.70115 11.5234 5.69983 11.5234 5.68463ZM11.6916 5.83696H11.5489L11.5538 5.72048H11.6868L11.6916 5.83696ZM11.3029 5.55374V5.49453H11.3318V5.52967H11.3842V5.49594H11.4146V5.52967H11.4669V5.49453H11.4959V5.55374C11.4959 5.56964 11.4766 5.57026 11.4746 5.57096H11.3237C11.3216 5.57026 11.3029 5.56955 11.3029 5.55374ZM11.4711 5.83626H11.3277L11.3332 5.59029H11.4655L11.4711 5.83626ZM11.0817 5.68463V5.62534H11.1107V5.65977H11.1637V5.62604H11.1933V5.65977H11.2458V5.62534H11.2754V5.68463C11.2754 5.69974 11.256 5.70115 11.254 5.70115H11.1031C11.1003 5.70115 11.0817 5.69983 11.0817 5.68463ZM11.2498 5.83696H11.1071L11.1121 5.72048H11.2451L11.2498 5.83696ZM11.0721 5.87553C11.0721 5.86657 11.0782 5.85901 11.0865 5.8569C11.0879 5.8569 11.0892 5.8562 11.0913 5.8562H11.7075C11.7177 5.8562 11.7268 5.86516 11.7268 5.87553C11.7268 5.88589 11.7177 5.89485 11.7075 5.89485H11.0913C11.0862 5.89474 11.0814 5.89267 11.0778 5.88906C11.0742 5.88546 11.0722 5.88061 11.0721 5.87553ZM11.0872 5.9314C11.0874 5.92789 11.0884 5.92448 11.0902 5.92148C11.092 5.91847 11.0945 5.91596 11.0976 5.91418H11.7005C11.7067 5.91761 11.7108 5.92384 11.7108 5.9314C11.7108 5.93652 11.7088 5.94144 11.7051 5.94506C11.7015 5.94869 11.6966 5.95073 11.6915 5.95073H11.1064C11.1014 5.95059 11.0965 5.94851 11.093 5.94491C11.0894 5.94131 11.0873 5.93647 11.0872 5.9314ZM11.7205 6.24633H11.0776C11.0673 6.24633 11.0583 6.23737 11.0583 6.22701C11.0583 6.21664 11.0673 6.20768 11.0776 6.20768H11.7205C11.7257 6.20768 11.7306 6.20972 11.7342 6.21334C11.7378 6.21696 11.7399 6.22188 11.7399 6.22701C11.7399 6.23213 11.7378 6.23705 11.7342 6.24067C11.7306 6.2443 11.7257 6.24633 11.7205 6.24633Z" fill="black"></path>
<path d="M11.685 7.76724L11.3997 7.76584L11.1145 7.76724L11.0848 8.01673H11.7146L11.685 7.76724ZM11.7208 8.02218H11.0779C11.0728 8.02218 11.0679 8.02421 11.0643 8.02784C11.0606 8.03146 11.0586 8.03638 11.0586 8.04151C11.0586 8.05196 11.0676 8.06083 11.0779 8.06083H11.7208C11.726 8.06083 11.7309 8.0588 11.7345 8.05517C11.7381 8.05155 11.7402 8.04663 11.7402 8.04151C11.7402 8.03895 11.7397 8.03642 11.7388 8.03405C11.7378 8.03169 11.7364 8.02954 11.7346 8.02773C11.7328 8.02593 11.7307 8.02451 11.7283 8.02355C11.7259 8.0226 11.7234 8.02213 11.7208 8.02218ZM11.7008 7.72798H11.0979C11.0948 7.72975 11.0923 7.73226 11.0905 7.73526C11.0887 7.73827 11.0876 7.74169 11.0875 7.74519C11.0875 7.75556 11.0965 7.76452 11.1068 7.76452H11.6918C11.6962 7.76448 11.7003 7.76301 11.7037 7.76033C11.7071 7.75765 11.7095 7.75392 11.7105 7.74973C11.7116 7.74554 11.7112 7.74113 11.7094 7.73719C11.7076 7.73325 11.7046 7.73001 11.7008 7.72798ZM11.727 7.50054V7.42956H11.6781V7.4654H11.6449V7.43096H11.5954V7.4654H11.5623V7.42956H11.5141V7.50054C11.5141 7.52672 11.5444 7.52742 11.5444 7.52742L11.5388 7.67008H11.4809L11.4754 7.39855C11.4754 7.39855 11.5057 7.39784 11.5057 7.37096V7.29928H11.4575V7.33582H11.4244V7.29998H11.3748V7.33582H11.3417V7.29928H11.2935V7.37096C11.2935 7.39784 11.3239 7.39855 11.3239 7.39855L11.3183 7.67008H11.2605L11.2543 7.52883C11.2543 7.52883 11.2854 7.52742 11.2854 7.50133V7.42965H11.2365V7.46619H11.2034V7.43105H11.1544V7.46619H11.1206V7.42965H11.0724V7.50133L11.1034 7.52883L11.0972 7.67008H11.0917C11.0866 7.6702 11.0818 7.67226 11.0782 7.67584C11.0746 7.67943 11.0726 7.68426 11.0725 7.68932C11.0725 7.69969 11.0814 7.70865 11.0917 7.70865H11.7078C11.7181 7.70865 11.7272 7.69969 11.7272 7.68932C11.727 7.68425 11.7249 7.67942 11.7213 7.67584C11.7177 7.67225 11.7129 7.6702 11.7078 7.67008H11.7023L11.6961 7.52742C11.6961 7.52742 11.727 7.52672 11.727 7.50054Z" fill="#F5E600"></path>
<path d="M11.1642 7.57292C11.1669 7.56396 11.1718 7.55913 11.178 7.55913C11.1849 7.55913 11.1897 7.56396 11.1917 7.57292C11.193 7.57741 11.1937 7.58204 11.1938 7.58671V7.62326H11.1621V7.58671C11.1621 7.58671 11.1621 7.57977 11.1642 7.57292ZM11.6059 7.57292C11.6086 7.56396 11.6135 7.55913 11.6197 7.55913C11.6265 7.55913 11.6314 7.56396 11.6334 7.57292C11.6351 7.57732 11.6361 7.58199 11.6362 7.58671V7.62326H11.6038V7.58671C11.6039 7.58671 11.6045 7.57977 11.6059 7.57292ZM11.3854 7.48885C11.3881 7.47848 11.3923 7.47304 11.3991 7.47304C11.4053 7.47304 11.4102 7.47857 11.4129 7.48885C11.4142 7.49427 11.4148 7.49981 11.4149 7.50537V7.54947H11.3825V7.50537C11.3826 7.50537 11.3833 7.49711 11.3854 7.48885Z" fill="black"></path>
<path d="M11.7219 8.00294L11.6957 7.78314C11.7051 7.78221 11.7138 7.77781 11.7202 7.7708C11.7266 7.76379 11.7301 7.75466 11.7301 7.7452C11.7302 7.73771 11.7283 7.73034 11.7246 7.72385C11.7321 7.72016 11.7382 7.7141 11.7419 7.70662C11.7457 7.69913 11.7468 7.69062 11.7453 7.6824C11.7437 7.67418 11.7395 7.6667 11.7332 7.66111C11.727 7.65552 11.7191 7.65213 11.7108 7.65146L11.706 7.53295C11.7198 7.53014 11.7363 7.52048 11.7363 7.49843V7.41989H11.6681V7.45503H11.6544V7.4206H11.5861V7.45503H11.5717V7.41989H11.5041V7.49843C11.5041 7.52048 11.5206 7.53014 11.5345 7.53295L11.5297 7.65076H11.4904L11.4849 7.40268C11.4987 7.39995 11.5153 7.39029 11.5153 7.36824V7.28962H11.4477V7.32476H11.4339V7.29023H11.365V7.32476H11.3512V7.28962H11.2836V7.36824C11.2836 7.39029 11.3001 7.39995 11.3139 7.40268L11.3084 7.65076H11.2691L11.2643 7.53295C11.2781 7.53014 11.2946 7.52048 11.2946 7.49843V7.41989H11.2264V7.45503H11.2126V7.4206H11.1445V7.45503H11.13V7.41989H11.0624V7.49843C11.0624 7.52048 11.0789 7.53014 11.0928 7.53295L11.0879 7.65146C11.0783 7.65215 11.0694 7.65645 11.0629 7.66348C11.0564 7.67051 11.0528 7.67974 11.0529 7.68932C11.0529 7.70452 11.0618 7.71761 11.0742 7.72385C11.07 7.73016 11.0679 7.73762 11.0681 7.7452C11.0681 7.76522 11.0832 7.78104 11.1025 7.78314L11.0763 8.00294C11.0663 8.00322 11.0568 8.00741 11.0498 8.01462C11.0429 8.02183 11.039 8.03148 11.0391 8.04151C11.0391 8.06215 11.0563 8.08007 11.0776 8.08007H11.7205C11.7256 8.08008 11.7306 8.07909 11.7353 8.07716C11.74 8.07522 11.7442 8.07238 11.7478 8.0688C11.7514 8.06521 11.7542 8.06095 11.7561 8.05627C11.7581 8.05159 11.759 8.04657 11.759 8.04151C11.7591 8.03148 11.7553 8.02182 11.7483 8.0146C11.7414 8.00738 11.7319 8.00319 11.7219 8.00294ZM11.4029 7.82997L11.3994 7.82856L11.3953 7.82997C11.3085 7.8644 11.2981 7.96912 11.2974 8.00294H11.2526C11.254 7.96578 11.2678 7.83067 11.3925 7.78385H11.4056C11.5324 7.83137 11.5455 7.96508 11.5462 8.00294H11.5014C11.5 7.96912 11.4897 7.8644 11.4029 7.82997ZM11.482 8.00294H11.3166C11.318 7.97263 11.3277 7.8803 11.3993 7.84929C11.4711 7.8803 11.4806 7.97263 11.482 8.00294ZM11.3491 7.78376C11.2471 7.84508 11.2346 7.96701 11.2333 8.00285H11.0962L11.1216 7.78376H11.3491ZM11.5654 8.00294C11.564 7.9671 11.5516 7.84517 11.4497 7.78385H11.6764L11.7026 8.00294H11.5654ZM11.5234 7.49843V7.43922H11.5524V7.47436H11.6055V7.44063H11.6351V7.47436H11.6875V7.43922H11.7171V7.49843C11.7171 7.51363 11.6979 7.51495 11.6959 7.51495H11.5449C11.542 7.51503 11.5234 7.51363 11.5234 7.49843ZM11.6916 7.65076H11.5489L11.5538 7.53427H11.6868L11.6916 7.65076ZM11.3029 7.36824V7.30894H11.3318V7.34408H11.3842V7.30956H11.4146V7.34408H11.4669V7.30894H11.4959V7.36824C11.4959 7.38335 11.4766 7.38476 11.4746 7.38476L11.4655 7.38546H11.3305L11.3237 7.38476C11.3216 7.38476 11.3029 7.38335 11.3029 7.36824ZM11.4711 7.65006H11.3277L11.3332 7.4047H11.4655L11.4711 7.65006ZM11.0817 7.49843V7.43922H11.1107V7.47436H11.1637V7.44063H11.1933V7.47436H11.2458V7.43922H11.2754V7.49843C11.2754 7.51363 11.256 7.51495 11.254 7.51495H11.1031C11.1003 7.51503 11.0817 7.51363 11.0817 7.49843ZM11.2498 7.65076H11.1071L11.1121 7.53427H11.2451L11.2498 7.65076ZM11.0721 7.68932C11.0721 7.68036 11.0782 7.67351 11.0865 7.67079C11.0879 7.67079 11.0892 7.67009 11.0913 7.67009H11.7075C11.7177 7.67009 11.7268 7.67905 11.7268 7.68932C11.7268 7.69969 11.7177 7.70865 11.7075 7.70865H11.0913C11.0862 7.70854 11.0814 7.70646 11.0778 7.70286C11.0742 7.69926 11.0722 7.69441 11.0721 7.68932ZM11.0872 7.7452C11.0874 7.74169 11.0884 7.73828 11.0902 7.73527C11.092 7.73227 11.0945 7.72976 11.0976 7.72798H11.7005C11.7067 7.73149 11.7108 7.73764 11.7108 7.7452C11.7108 7.75032 11.7088 7.75524 11.7051 7.75886C11.7015 7.76249 11.6966 7.76452 11.6915 7.76452H11.1064C11.1014 7.76441 11.0965 7.76233 11.0929 7.75873C11.0893 7.75513 11.0873 7.75028 11.0872 7.7452ZM11.7205 8.06083H11.0776C11.0725 8.06072 11.0677 8.05865 11.0641 8.05505C11.0605 8.05145 11.0584 8.0466 11.0583 8.04151C11.0583 8.03638 11.0603 8.03146 11.064 8.02784C11.0676 8.02422 11.0725 8.02218 11.0776 8.02218H11.7205C11.7315 8.02218 11.7399 8.03044 11.7399 8.04151C11.7399 8.04663 11.7378 8.05155 11.7342 8.05517C11.7306 8.0588 11.7257 8.06083 11.7205 8.06083Z" fill="black"></path>
<path d="M11.1241 9.87384L10.9243 9.67126L10.7217 9.47079L10.5239 9.62663L10.7465 9.84836L10.9698 10.0717L11.1241 9.87384ZM10.9705 10.08L10.5156 9.62514C10.5081 9.61758 10.4956 9.61758 10.4888 9.62514C10.4868 9.62679 10.4853 9.62884 10.4842 9.63113C10.4831 9.63343 10.4825 9.63593 10.4824 9.63847C10.4824 9.64101 10.4828 9.64354 10.4838 9.64589C10.4848 9.64824 10.4862 9.65036 10.4881 9.65211L10.9436 10.1077C10.9505 10.1145 10.9628 10.1145 10.9705 10.1077C10.978 10.0993 10.978 10.0877 10.9705 10.08ZM11.1641 9.85802L10.7376 9.43144C10.7314 9.4295 10.7231 9.43073 10.7183 9.43635C10.7107 9.44321 10.7107 9.45559 10.7183 9.46324L11.1324 9.87744C11.1393 9.88499 11.1517 9.88499 11.1594 9.87744C11.1618 9.87494 11.1636 9.87181 11.1644 9.86839C11.1653 9.86497 11.1651 9.86139 11.1641 9.85802ZM11.3433 9.71474C11.3619 9.69682 11.3928 9.66511 11.3928 9.66511L11.359 9.63067L11.3335 9.65615L11.3101 9.63261L11.3349 9.60792L11.3169 9.5907L11.2997 9.57278L11.2757 9.59756L11.2516 9.57401L11.2771 9.54924L11.2426 9.51472L11.193 9.56435C11.1744 9.58297 11.1951 9.60573 11.1951 9.60573L11.0903 9.70218L11.0496 9.66081L11.2372 9.46508C11.2372 9.46508 11.2592 9.48564 11.2786 9.46701L11.3295 9.41606L11.295 9.38224L11.2688 9.4078L11.2453 9.38435L11.2708 9.35879L11.2536 9.34157L11.2358 9.32435L11.2109 9.34912L11.1875 9.32567L11.2129 9.30019L11.1792 9.26558L11.1282 9.31662C11.1088 9.33524 11.1302 9.35729 11.1302 9.35729L10.9339 9.54555L10.8932 9.50488L10.989 9.40016C10.989 9.40016 11.0111 9.42151 11.0304 9.40288C11.0489 9.38435 11.0806 9.35193 11.0806 9.35193L11.0468 9.31811L11.0206 9.34368L10.9972 9.32013L11.022 9.29536L11.0047 9.27744L10.9876 9.26031L10.9628 9.28508L10.9393 9.26154L10.9641 9.23597L10.9303 9.20154C10.9303 9.20154 10.8979 9.23316 10.88 9.25258C10.8608 9.2712 10.882 9.29325 10.882 9.29325L10.778 9.38901L10.7738 9.38558C10.7663 9.37802 10.7538 9.37802 10.7463 9.38558C10.7389 9.39313 10.7388 9.40561 10.7463 9.41246L11.1818 9.84801C11.1835 9.84998 11.1857 9.85156 11.188 9.85265C11.1904 9.85373 11.193 9.85429 11.1956 9.85429C11.1982 9.85429 11.2008 9.85373 11.2031 9.85265C11.2055 9.85156 11.2076 9.84998 11.2093 9.84801C11.2111 9.84626 11.2125 9.84417 11.2135 9.84186C11.2145 9.83955 11.215 9.83707 11.215 9.83457C11.215 9.83207 11.2145 9.82959 11.2135 9.82728C11.2125 9.82497 11.2111 9.82288 11.2093 9.82113L11.2052 9.8177L11.3024 9.71229C11.3026 9.71264 11.3247 9.73398 11.3433 9.71474Z" fill="#F5E600"></path>
<path d="M10.8947 9.36871C10.903 9.36458 10.9092 9.36458 10.914 9.36871C10.9188 9.37363 10.9188 9.37969 10.914 9.38812C10.9119 9.39228 10.9094 9.3962 10.9064 9.39981L10.8802 9.42528L10.8574 9.40323L10.883 9.37705C10.883 9.37714 10.8884 9.37213 10.8947 9.36871ZM11.2068 9.68171C11.215 9.67679 11.222 9.67679 11.2261 9.68171C11.2309 9.68584 11.2309 9.69269 11.2261 9.70104C11.2234 9.70719 11.2185 9.71202 11.2185 9.71202L11.1923 9.7382L11.1695 9.71544L11.1958 9.68997C11.1958 9.68988 11.2006 9.68443 11.2068 9.68171ZM11.1096 9.46587C11.1193 9.46033 11.1268 9.45972 11.131 9.46385C11.1359 9.46877 11.1352 9.47632 11.1296 9.4859C11.1254 9.49284 11.1193 9.49846 11.1193 9.49846L11.0882 9.53L11.0654 9.50654L11.0965 9.47623C11.0965 9.47632 11.1028 9.47009 11.1096 9.46587Z" fill="black"></path>
<path d="M10.9851 10.0675L11.1215 9.89386C11.129 9.89962 11.1384 9.90251 11.1478 9.90201C11.1573 9.90151 11.1663 9.89766 11.1732 9.89114C11.1785 9.88588 11.1821 9.87914 11.1835 9.87181C11.1904 9.87402 11.1978 9.87429 11.2049 9.87259C11.2119 9.87088 11.2184 9.86727 11.2235 9.86215C11.2301 9.85541 11.234 9.84645 11.2344 9.83702C11.2347 9.82759 11.2316 9.81835 11.2255 9.81111L11.3055 9.72361C11.3171 9.73117 11.3358 9.73609 11.3516 9.72019L11.4067 9.66502L11.3591 9.61679L11.3344 9.64156L11.3248 9.6319L11.3489 9.60792L11.2998 9.5589L11.2758 9.58376L11.2662 9.57339L11.291 9.54932L11.2427 9.50101L11.1876 9.55609C11.1717 9.57199 11.1766 9.59061 11.1841 9.60221L11.0974 9.68215L11.0699 9.65386L11.2414 9.47465C11.2531 9.48221 11.2717 9.48713 11.2875 9.47193L11.3434 9.41614L11.2951 9.36853L11.2703 9.39339L11.2607 9.38303L11.2848 9.35904L11.2359 9.31073L11.2123 9.3348L11.2021 9.32443L11.2268 9.30045L11.1793 9.25213L11.1235 9.30818C11.1076 9.32338 11.1133 9.3427 11.1201 9.3543L10.9409 9.52587L10.9134 9.49837L10.9934 9.41149C11.005 9.41843 11.0237 9.42388 11.0389 9.40806L11.0947 9.35228L11.0471 9.30467L11.0223 9.32944L11.0128 9.31907L11.0362 9.29553L10.988 9.2466L10.9638 9.27076L10.9536 9.26109L10.9783 9.23623L10.9308 9.188L10.8749 9.24379C10.8598 9.25978 10.8647 9.27752 10.8722 9.28999L10.7854 9.36994C10.778 9.36371 10.7685 9.36047 10.7588 9.36083C10.7492 9.36118 10.7399 9.36512 10.733 9.37187C10.728 9.37694 10.7245 9.3833 10.7229 9.39023C10.7214 9.39717 10.7217 9.40441 10.724 9.41114C10.7168 9.41313 10.7101 9.41691 10.7047 9.42212C10.698 9.42877 10.694 9.43768 10.6935 9.44711C10.693 9.45655 10.696 9.46583 10.702 9.47316L10.5283 9.60959C10.5211 9.60281 10.5114 9.59916 10.5015 9.59944C10.4916 9.59972 10.4821 9.6039 10.4753 9.61108C10.4717 9.61463 10.4688 9.61886 10.4668 9.62353C10.4649 9.6282 10.4639 9.63321 10.4639 9.63827C10.4639 9.64333 10.4649 9.64834 10.4668 9.65301C10.4688 9.65768 10.4717 9.66191 10.4753 9.66546L10.9301 10.1203C10.9337 10.1239 10.9379 10.1268 10.9426 10.1287C10.9472 10.1307 10.9522 10.1317 10.9573 10.1317C10.9624 10.1317 10.9674 10.1307 10.972 10.1287C10.9767 10.1268 10.9809 10.1239 10.9845 10.1203C10.9913 10.1133 10.9952 10.1039 10.9953 10.0941C10.9954 10.0842 10.9918 10.0747 10.9851 10.0675ZM10.8816 9.71878L10.8796 9.71606L10.8762 9.71412C10.7907 9.67679 10.7087 9.74373 10.6846 9.76648L10.653 9.73477C10.6805 9.70929 10.7853 9.62452 10.9073 9.67969L10.9162 9.68874C10.9721 9.81137 10.8866 9.91547 10.8612 9.94235L10.8294 9.91134C10.8513 9.88701 10.9189 9.80496 10.8816 9.71878ZM10.8155 9.89746L10.6984 9.78027C10.7204 9.76016 10.792 9.70165 10.8651 9.73073C10.8934 9.80294 10.8355 9.87471 10.8155 9.89746ZM10.8762 9.64859C10.7605 9.6196 10.6654 9.69682 10.6392 9.72168L10.542 9.62382L10.7158 9.488L10.8762 9.64859ZM10.8741 9.95597C10.8981 9.92979 10.9753 9.83474 10.9472 9.71966L11.1076 9.88025L10.9712 10.0539L10.8741 9.95597ZM11.2015 9.56997L11.2428 9.52859L11.2635 9.54923L11.2387 9.5733L11.2759 9.61046L11.2999 9.58648L11.3214 9.60783L11.2972 9.63181L11.3344 9.66906L11.3592 9.64437L11.3799 9.66493L11.3378 9.70701C11.3268 9.71738 11.3123 9.70499 11.3109 9.70358L11.3089 9.70209L11.2042 9.59676C11.2028 9.59483 11.1904 9.58095 11.2015 9.56997ZM11.2124 9.7967L11.1112 9.6955L11.1973 9.61688L11.291 9.71131L11.2124 9.7967ZM11.1367 9.32197L11.1794 9.27989L11.2 9.30054L11.1752 9.32452L11.2124 9.36168L11.236 9.33822L11.2572 9.35887L11.2332 9.38285L11.2704 9.4201L11.2952 9.39541L11.3158 9.41597L11.2737 9.45805C11.2628 9.46903 11.2483 9.45656 11.2469 9.45524L11.24 9.44839L11.1449 9.35325L11.1401 9.34841C11.1387 9.34666 11.1263 9.33304 11.1367 9.32197ZM11.0567 9.64024L10.9547 9.53904L11.1324 9.36879L11.2261 9.46253L11.0567 9.64024ZM10.8886 9.25776L10.9306 9.21568L10.9513 9.23632L10.9265 9.26118L10.9637 9.29834L10.9878 9.27436L11.0085 9.29562L10.985 9.31916L11.0222 9.35641L11.0469 9.33164L11.0676 9.35228L11.0249 9.39488C11.0139 9.40525 11.0001 9.39286 10.9987 9.39137L10.9973 9.38997L10.8926 9.28525L10.8919 9.28455C10.89 9.28332 10.8775 9.26882 10.8886 9.25776ZM10.8995 9.48449L10.7989 9.3832L10.8844 9.30467L10.9781 9.39831L10.8995 9.48449ZM10.7466 9.38601C10.7497 9.38311 10.7537 9.38127 10.7579 9.38076C10.7621 9.38025 10.7664 9.38111 10.7701 9.3832C10.7716 9.38392 10.773 9.38487 10.7742 9.38601L11.2097 9.82156C11.2173 9.82912 11.2173 9.84159 11.2097 9.84844C11.208 9.85042 11.2059 9.852 11.2035 9.85308C11.2011 9.85416 11.1986 9.85473 11.196 9.85473C11.1934 9.85473 11.1908 9.85416 11.1884 9.85308C11.186 9.852 11.1839 9.85042 11.1822 9.84844L10.7467 9.41289C10.7449 9.41116 10.7435 9.40907 10.7425 9.40677C10.7415 9.40446 10.741 9.40198 10.741 9.39947C10.741 9.39696 10.7414 9.39448 10.7424 9.39217C10.7434 9.38986 10.7448 9.38776 10.7466 9.38601ZM10.7184 9.43635C10.7208 9.43379 10.7239 9.43197 10.7274 9.4311C10.7308 9.43023 10.7344 9.43034 10.7377 9.43143L11.1642 9.85802C11.1653 9.86137 11.1654 9.86495 11.1645 9.86836C11.1637 9.87177 11.1619 9.87488 11.1594 9.87735C11.1576 9.87914 11.1555 9.88056 11.1532 9.88154C11.1509 9.88251 11.1484 9.88301 11.1459 9.88301C11.1434 9.88301 11.1409 9.88251 11.1386 9.88154C11.1363 9.88056 11.1342 9.87914 11.1324 9.87735L10.7183 9.46314C10.7165 9.4614 10.7151 9.45931 10.7141 9.45701C10.7132 9.4547 10.7127 9.45223 10.7127 9.44973C10.7127 9.44723 10.7132 9.44475 10.7142 9.44246C10.7152 9.44016 10.7166 9.43808 10.7184 9.43635ZM10.9437 10.1075L10.4882 9.65193C10.4863 9.65018 10.4849 9.64805 10.4839 9.6457C10.4829 9.64336 10.4825 9.64083 10.4825 9.63829C10.4826 9.63575 10.4832 9.63325 10.4843 9.63095C10.4854 9.62866 10.487 9.62661 10.4889 9.62496C10.4957 9.6174 10.5082 9.6174 10.5158 9.62496L10.9706 10.0798C10.9742 10.0835 10.9763 10.0884 10.9763 10.0936C10.9763 10.0987 10.9742 10.1037 10.9706 10.1073C10.963 10.1144 10.9506 10.1144 10.9437 10.1075Z" fill="black"></path>
<path d="M9.30331 6.63155V7.06297C9.30331 7.06367 9.30472 7.14423 9.34258 7.22285C9.39283 7.32827 9.4804 7.38203 9.60163 7.38203C9.72293 7.38203 9.81043 7.32827 9.86076 7.22285C9.88413 7.17262 9.89747 7.11831 9.90002 7.06297V6.63155H9.30331ZM9.44052 6.73767C9.45624 6.73767 9.47131 6.74391 9.48242 6.75502C9.49353 6.76614 9.49977 6.78121 9.49977 6.79692C9.49977 6.81264 9.49353 6.82771 9.48242 6.83882C9.47131 6.84993 9.45624 6.85618 9.44052 6.85618C9.42481 6.85618 9.40974 6.84993 9.39863 6.83882C9.38752 6.82771 9.38127 6.81264 9.38127 6.79692C9.38127 6.78121 9.38752 6.76614 9.39863 6.75502C9.40974 6.74391 9.42481 6.73767 9.44052 6.73767ZM9.44052 7.17805C9.4248 7.17805 9.40972 7.1718 9.3986 7.16068C9.38748 7.14956 9.38123 7.13448 9.38123 7.11875C9.38123 7.10303 9.38748 7.08795 9.3986 7.07683C9.40972 7.0657 9.4248 7.05946 9.44052 7.05946C9.45625 7.05946 9.47133 7.0657 9.48245 7.07683C9.49357 7.08795 9.49982 7.10303 9.49982 7.11875C9.49982 7.13448 9.49357 7.14956 9.48245 7.16068C9.47133 7.1718 9.45625 7.17805 9.44052 7.17805ZM9.60171 7.01747C9.58604 7.01735 9.57104 7.01108 9.55994 7C9.54885 6.98893 9.54256 6.97393 9.54242 6.95826C9.54325 6.94309 9.54985 6.92881 9.56088 6.91837C9.57191 6.90792 9.58652 6.9021 9.60171 6.9021C9.6169 6.9021 9.63151 6.90792 9.64254 6.91837C9.65357 6.92881 9.66018 6.94309 9.66101 6.95826C9.66087 6.97393 9.65457 6.98893 9.64348 7C9.63239 7.01108 9.61739 7.01735 9.60171 7.01747ZM9.76299 6.73767C9.77096 6.73736 9.77892 6.73866 9.78637 6.74149C9.79383 6.74432 9.80064 6.74863 9.8064 6.75416C9.81215 6.75969 9.81673 6.76632 9.81986 6.77366C9.82299 6.781 9.8246 6.7889 9.82461 6.79688C9.82461 6.80486 9.82301 6.81275 9.81989 6.8201C9.81677 6.82744 9.8122 6.83408 9.80646 6.83962C9.80071 6.84516 9.79391 6.84948 9.78646 6.85232C9.779 6.85517 9.77105 6.85648 9.76308 6.85618C9.74776 6.8556 9.73326 6.84911 9.72262 6.83807C9.71198 6.82703 9.70603 6.8123 9.70602 6.79697C9.70601 6.78163 9.71194 6.76689 9.72256 6.75584C9.73318 6.74478 9.74767 6.73827 9.76299 6.73767ZM9.76299 7.17875C9.7473 7.17864 9.73229 7.17235 9.72119 7.16126C9.7101 7.15016 9.70381 7.13515 9.7037 7.11946C9.70452 7.10429 9.71113 7.09001 9.72216 7.07957C9.73319 7.06912 9.7478 7.0633 9.76299 7.0633C9.77818 7.0633 9.79279 7.06912 9.80382 7.07957C9.81485 7.09001 9.82146 7.10429 9.82228 7.11946C9.82217 7.13515 9.81589 7.15016 9.80479 7.16126C9.7937 7.17235 9.77868 7.17864 9.76299 7.17875ZM9.30331 8.67893V9.11097C9.30331 9.11097 9.30472 9.19161 9.34258 9.27085C9.39283 9.37618 9.4804 9.42933 9.60163 9.42933C9.72293 9.42933 9.81043 9.37627 9.86076 9.27085C9.89871 9.19161 9.90002 9.11097 9.90002 9.11027V8.67884L9.30331 8.67893ZM9.44052 8.78505C9.45225 8.78505 9.46371 8.78853 9.47346 8.79505C9.48322 8.80156 9.49081 8.81082 9.4953 8.82166C9.49979 8.83249 9.50096 8.84441 9.49868 8.85592C9.49639 8.86742 9.49074 8.87799 9.48245 8.88628C9.47416 8.89457 9.46359 8.90022 9.45209 8.90251C9.44059 8.9048 9.42867 8.90362 9.41783 8.89913C9.407 8.89465 9.39774 8.88704 9.39122 8.87729C9.38471 8.86754 9.38123 8.85608 9.38123 8.84435C9.38135 8.82866 9.38763 8.81364 9.39872 8.80255C9.40982 8.79145 9.42483 8.78517 9.44052 8.78505ZM9.44052 9.22614C9.40811 9.22614 9.38123 9.19926 9.38123 9.16684C9.38123 9.13442 9.40811 9.10754 9.44052 9.10754C9.47285 9.10754 9.49973 9.13442 9.49973 9.16684C9.49973 9.19926 9.47285 9.22614 9.44052 9.22614ZM9.60171 9.06485C9.56939 9.06485 9.54242 9.03797 9.54242 9.00555C9.54242 8.97313 9.56939 8.94634 9.60171 8.94634C9.61739 8.94646 9.63239 8.95273 9.64348 8.9638C9.65457 8.97488 9.66087 8.98987 9.66101 9.00555C9.66089 9.02124 9.65461 9.03626 9.64351 9.04735C9.63242 9.05845 9.6174 9.06473 9.60171 9.06485ZM9.76299 8.78505C9.77472 8.78505 9.78618 8.78853 9.79593 8.79505C9.80568 8.80156 9.81328 8.81082 9.81777 8.82166C9.82226 8.83249 9.82343 8.84441 9.82114 8.85592C9.81886 8.86742 9.81321 8.87799 9.80492 8.88628C9.79662 8.89457 9.78606 8.90022 9.77456 8.90251C9.76306 8.9048 9.75113 8.90362 9.7403 8.89913C9.72947 8.89465 9.72021 8.88704 9.71369 8.87729C9.70717 8.86754 9.7037 8.85608 9.7037 8.84435C9.70381 8.82866 9.7101 8.81364 9.72119 8.80255C9.73229 8.79145 9.7473 8.78517 9.76299 8.78505ZM9.76299 9.22614C9.73066 9.22614 9.7037 9.19926 9.7037 9.16684C9.7037 9.13442 9.73066 9.10754 9.76299 9.10754C9.7954 9.10754 9.82228 9.13442 9.82228 9.16684C9.82228 9.19926 9.7954 9.22614 9.76299 9.22614ZM9.30331 7.65559V8.08701C9.30331 8.08701 9.30472 8.16757 9.34258 8.2469C9.39283 8.35231 9.4804 8.40608 9.60163 8.40608C9.72293 8.40608 9.81043 8.3524 9.86076 8.2469C9.89871 8.16766 9.90002 8.08701 9.90002 8.08701V7.65559H9.30331ZM9.44052 7.76171C9.45624 7.76171 9.47131 7.76796 9.48242 7.77907C9.49353 7.79018 9.49977 7.80525 9.49977 7.82097C9.49977 7.83668 9.49353 7.85175 9.48242 7.86286C9.47131 7.87398 9.45624 7.88022 9.44052 7.88022C9.42481 7.88022 9.40974 7.87398 9.39863 7.86286C9.38752 7.85175 9.38127 7.83668 9.38127 7.82097C9.38127 7.80525 9.38752 7.79018 9.39863 7.77907C9.40974 7.76796 9.42481 7.76171 9.44052 7.76171ZM9.44052 8.20218C9.42482 8.20207 9.40979 8.19577 9.39869 8.18466C9.3876 8.17354 9.38132 8.1585 9.38123 8.1428C9.38135 8.12711 9.38763 8.11209 9.39872 8.10099C9.40982 8.0899 9.42483 8.08361 9.44052 8.0835C9.4562 8.08364 9.47119 8.08993 9.48227 8.10102C9.49334 8.11212 9.49961 8.12712 9.49973 8.1428C9.49964 8.15849 9.49338 8.17351 9.4823 8.18463C9.47122 8.19574 9.45621 8.20204 9.44052 8.20218ZM9.60171 8.04151C9.58592 8.04135 9.57082 8.03495 9.55972 8.02371C9.54861 8.01248 9.5424 7.99731 9.54242 7.98151C9.54242 7.94909 9.56939 7.92291 9.60171 7.92291C9.63413 7.92291 9.66101 7.94909 9.66101 7.98151C9.66103 7.99731 9.65481 8.01248 9.64371 8.02371C9.6326 8.03495 9.61751 8.04135 9.60171 8.04151ZM9.76299 7.76171C9.77096 7.7614 9.77892 7.7627 9.78637 7.76553C9.79383 7.76837 9.80064 7.77268 9.8064 7.7782C9.81215 7.78373 9.81673 7.79037 9.81986 7.79771C9.82299 7.80505 9.8246 7.81294 9.82461 7.82092C9.82461 7.8289 9.82301 7.8368 9.81989 7.84414C9.81677 7.85149 9.8122 7.85813 9.80646 7.86366C9.80071 7.8692 9.79391 7.87352 9.78646 7.87636C9.779 7.87921 9.77105 7.88052 9.76308 7.88022C9.74776 7.87964 9.73326 7.87315 9.72262 7.86211C9.71198 7.85107 9.70603 7.83634 9.70602 7.82101C9.70601 7.80568 9.71194 7.79094 9.72256 7.77988C9.73318 7.76883 9.74767 7.76231 9.76299 7.76171ZM9.76299 8.20218C9.74726 8.20216 9.73218 8.19589 9.72106 8.18476C9.70994 8.17362 9.7037 8.15853 9.7037 8.1428C9.7037 8.11047 9.73066 8.0835 9.76299 8.0835C9.77833 8.08409 9.79285 8.0906 9.8035 8.10166C9.81414 8.11273 9.82009 8.12749 9.82009 8.14284C9.82009 8.1582 9.81414 8.17295 9.8035 8.18402C9.79285 8.19508 9.77833 8.20159 9.76299 8.20218ZM8.4668 7.65559V8.08701C8.4668 8.08701 8.4682 8.16757 8.50677 8.2469C8.55701 8.35231 8.64459 8.40608 8.76581 8.40608C8.88712 8.40608 8.97391 8.3524 9.02424 8.2469C9.06219 8.16766 9.06421 8.08701 9.06421 8.08701V7.65559H8.4668ZM8.60462 7.76171C8.62033 7.76171 8.6354 7.76796 8.64652 7.77907C8.65763 7.79018 8.66387 7.80525 8.66387 7.82097C8.66387 7.83668 8.65763 7.85175 8.64652 7.86286C8.6354 7.87398 8.62033 7.88022 8.60462 7.88022C8.58891 7.88022 8.57384 7.87398 8.56273 7.86286C8.55161 7.85175 8.54537 7.83668 8.54537 7.82097C8.54537 7.80525 8.55161 7.79018 8.56273 7.77907C8.57384 7.76796 8.58891 7.76171 8.60462 7.76171ZM8.60462 8.20218C8.58928 8.20159 8.57476 8.19508 8.56412 8.18402C8.55347 8.17295 8.54752 8.1582 8.54752 8.14284C8.54752 8.12749 8.55347 8.11273 8.56412 8.10166C8.57476 8.0906 8.58928 8.08409 8.60462 8.0835C8.6203 8.08364 8.63529 8.08993 8.64636 8.10102C8.65744 8.11212 8.66371 8.12712 8.66383 8.1428C8.66373 8.15849 8.65747 8.17351 8.64639 8.18463C8.63532 8.19574 8.62031 8.20204 8.60462 8.20218ZM8.76581 8.04151C8.75797 8.04149 8.75022 8.03991 8.743 8.03688C8.73577 8.03385 8.72922 8.02941 8.72372 8.02384C8.71821 8.01826 8.71387 8.01165 8.71093 8.00438C8.70799 7.99712 8.70652 7.98934 8.70661 7.98151C8.70661 7.94909 8.73278 7.92291 8.76581 7.92291C8.79752 7.92291 8.8251 7.94909 8.8251 7.98151C8.82504 7.99728 8.81879 8.0124 8.80771 8.02361C8.79662 8.03483 8.78158 8.04126 8.76581 8.04151ZM8.92709 7.76171C8.9595 7.76171 8.98568 7.78789 8.98568 7.82092C8.98573 7.83654 8.97959 7.85155 8.96861 7.86266C8.95763 7.87377 8.94271 7.88008 8.92709 7.88022C8.91129 7.88024 8.89612 7.87403 8.88489 7.86292C8.87365 7.85181 8.86725 7.83672 8.86709 7.82092C8.86714 7.81309 8.86873 7.80535 8.87177 7.79814C8.87481 7.79092 8.87924 7.78438 8.88482 7.77888C8.89039 7.77338 8.89699 7.76903 8.90424 7.76609C8.9115 7.76314 8.91926 7.76166 8.92709 7.76171ZM8.92709 8.20218C8.91175 8.20159 8.89723 8.19508 8.88658 8.18402C8.87594 8.17295 8.86999 8.1582 8.86999 8.14284C8.86999 8.12749 8.87594 8.11273 8.88658 8.10166C8.89723 8.0906 8.91175 8.08409 8.92709 8.0835C8.9595 8.0835 8.98568 8.11047 8.98568 8.1428C8.98576 8.15055 8.98431 8.15825 8.9814 8.16544C8.97849 8.17263 8.97419 8.17917 8.96875 8.18469C8.9633 8.19021 8.95682 8.1946 8.94967 8.1976C8.94252 8.2006 8.93484 8.20216 8.92709 8.20218ZM10.1392 7.65559V8.08701C10.1392 8.08701 10.1412 8.16757 10.1792 8.2469C10.2294 8.35231 10.3164 8.40608 10.4375 8.40608C10.5588 8.40608 10.6463 8.3524 10.6967 8.2469C10.7346 8.16766 10.7366 8.08701 10.7366 8.08701V7.65559H10.1392ZM10.277 7.76171C10.3094 7.76171 10.3355 7.78789 10.3355 7.82092C10.3356 7.83653 10.3295 7.85152 10.3185 7.86263C10.3075 7.87373 10.2926 7.88006 10.277 7.88022C10.2612 7.88024 10.2461 7.87403 10.2348 7.86292C10.2236 7.85181 10.2172 7.83672 10.217 7.82092C10.2171 7.81309 10.2187 7.80534 10.2217 7.79812C10.2247 7.7909 10.2292 7.78435 10.2347 7.77885C10.2403 7.77335 10.2469 7.769 10.2542 7.76606C10.2614 7.76312 10.2692 7.76164 10.277 7.76171ZM10.277 8.20218C10.2617 8.20159 10.2472 8.19508 10.2365 8.18402C10.2259 8.17295 10.2199 8.1582 10.2199 8.14284C10.2199 8.12749 10.2259 8.11273 10.2365 8.10166C10.2472 8.0906 10.2617 8.08409 10.277 8.0835C10.2927 8.08364 10.3077 8.08993 10.3188 8.10102C10.3299 8.11212 10.3361 8.12712 10.3362 8.1428C10.3362 8.15849 10.3299 8.17351 10.3188 8.18463C10.3077 8.19574 10.2927 8.20204 10.277 8.20218ZM10.4375 8.04151C10.4217 8.04135 10.4066 8.03495 10.3955 8.02371C10.3844 8.01248 10.3782 7.99731 10.3782 7.98151C10.3782 7.94909 10.4052 7.92291 10.4375 7.92291C10.4706 7.92291 10.4968 7.94909 10.4968 7.98151C10.4969 7.98935 10.4954 7.99713 10.4925 8.0044C10.4895 8.01167 10.4852 8.01829 10.4797 8.02387C10.4742 8.02945 10.4676 8.03388 10.4604 8.0369C10.4531 8.03993 10.4454 8.0415 10.4375 8.04151ZM10.5988 7.76171C10.6068 7.76141 10.6147 7.76271 10.6222 7.76555C10.6296 7.76839 10.6364 7.7727 10.6422 7.77824C10.6479 7.78377 10.6525 7.79041 10.6556 7.79775C10.6588 7.80509 10.6604 7.81299 10.6604 7.82097C10.6604 7.82895 10.6588 7.83684 10.6556 7.84418C10.6525 7.85153 10.6479 7.85816 10.6422 7.86369C10.6364 7.86923 10.6296 7.87354 10.6222 7.87638C10.6147 7.87922 10.6068 7.88053 10.5988 7.88022C10.5835 7.87963 10.569 7.87313 10.5584 7.86208C10.5477 7.85103 10.5418 7.8363 10.5418 7.82097C10.5418 7.80563 10.5477 7.7909 10.5584 7.77985C10.569 7.7688 10.5835 7.7623 10.5988 7.76171ZM10.5988 8.20218C10.5831 8.20216 10.568 8.19589 10.5569 8.18476C10.5458 8.17362 10.5395 8.15853 10.5395 8.1428C10.5395 8.11047 10.5665 8.0835 10.5988 8.0835C10.6145 8.0835 10.6296 8.08975 10.6408 8.10088C10.6519 8.11201 10.6581 8.1271 10.6581 8.14284C10.6581 8.15858 10.6519 8.17367 10.6408 8.1848C10.6296 8.19593 10.6145 8.20218 10.5988 8.20218Z" fill="#153A8D"></path>
</g>
<defs>
<clipPath id="clip0_10_29">
<rect width="24" height="16" rx="8" fill="white"></rect>
</clipPath>
</defs>
</svg>
