<svg width="24" height="16" viewBox="0 0 24 16" fill="none" xmlns="http://www.w3.org/2000/svg">
<g clip-path="url('#clip0_10_16')">
<path d="M0 0.127251H24V15.872H0V0.127251Z" fill="white"></path>
<path d="M10.9867 0.127251V6.75575H0V9.56225H10.9867V15.8728H13.212V9.56225H24V6.75575H13.212V0.127251H10.9867Z" fill="#BD0034"></path>
<path d="M10.2442 0.127251H1.875L10.2442 5.42V0.127251ZM0 5.8205H5.89875L0 2.08025V5.8205Z" fill="#1A237B"></path>
<path d="M0 0.125V1.046L7.07925 5.46575H8.81775C8.81775 5.46575 1.8405 1.14425 0.183 0.125H0Z" fill="#BD0034"></path>
<path d="M10.2442 15.8727H1.875L10.2442 10.58V15.8727ZM0 10.1795H5.89875L0 13.9197V10.1795Z" fill="#1A237B"></path>
<path d="M0 15.875V14.954L7.07925 10.5342H8.81775C8.81775 10.5342 1.8405 14.8557 0.183 15.875H0Z" fill="#BD0034"></path>
<path d="M13.7559 0.127251H22.1251L13.7559 5.42V0.127251ZM24.0001 5.8205H18.1014L24.0001 2.08025V5.8205Z" fill="#1A237B"></path>
<path d="M24.0004 0.125V1.046L16.9211 5.46575H15.1826C15.1826 5.46575 22.1576 1.14425 23.8174 0.12725L24.0004 0.125Z" fill="#BD0034"></path>
<path d="M13.7559 15.8727H22.1251L13.7559 10.58V15.8727ZM24.0001 10.1795H18.1014L24.0001 13.9197V10.1795Z" fill="#1A237B"></path>
<path d="M24.0004 15.875V14.954L16.9211 10.5342H15.1826C15.1826 10.5342 22.1576 14.8557 23.8174 15.8727L24.0004 15.875Z" fill="#BD0034"></path>
</g>
<defs>
<clipPath id="clip0_10_16">
<rect width="24" height="16" rx="8" fill="white"></rect>
</clipPath>
</defs>
</svg>
