<svg width="203" height="41" viewBox="0 0 203 41" fill="none" xmlns="http://www.w3.org/2000/svg">
<g clip-path="url('#clip0_57_42')">
<path d="M56.5117 31.1499V1.0498H69.7508C73.0605 1.0498 75.6908 1.90951 77.6437 3.67222C79.5946 5.43493 80.5711 7.67182 80.5711 10.4674C80.5711 13.2609 79.5946 15.5411 77.6437 17.3038C75.6929 19.0665 73.0605 19.9283 69.7508 19.9283H64.1504V31.1519H56.5117V31.1499ZM64.1484 13.5619H69.1974C71.4046 13.5619 72.8469 12.4445 72.8469 10.5519C72.8469 8.65935 71.4473 7.58523 69.1974 7.58523H64.1484V13.5619Z" fill="white" fill-opacity="0.7"></path>
<path d="M118.303 31.1499V1.0498H125.939V12.5311L135.572 1.0498H144.738L133.238 14.8958L146.86 31.1519H137.567L125.941 17.778V31.1519H118.303V31.1499Z" fill="white" fill-opacity="0.7"></path>
<path d="M149.271 31.1499V1.0498H171.843V7.84294H156.907V11.9291H168.787V18.4645H156.907V24.3567H172.183V31.1519H149.271V31.1499Z" fill="white" fill-opacity="0.7"></path>
<path d="M174.595 31.1499V1.0498H188.554C191.821 1.0498 194.409 1.90951 196.319 3.67222C198.27 5.3937 199.246 7.62852 199.246 10.3375C199.246 14.2505 197.082 17.3904 193.475 18.8088L202.47 31.1519H193.686L185.285 19.6706H182.229V31.1519H174.595V31.1499ZM182.233 13.3475H188.131C190.21 13.3475 191.526 12.2734 191.526 10.5107C191.526 8.748 190.21 7.58523 188.131 7.58523H182.233V13.3475Z" fill="white" fill-opacity="0.7"></path>
<path d="M36.9502 31.1497V7.83865H28.0381V1.04346H53.5418V7.83865H44.5869V31.1476H36.9502V31.1497Z" fill="white" fill-opacity="0.7"></path>
<path d="M26.0464 13.6009H21.4042H15.9462L14.1174 19.8456H21.4062V23.4494C20.2609 24.3957 18.6905 24.8678 16.6948 24.8678C14.3615 24.8678 12.4086 24.0947 10.7955 22.5443C9.18228 20.996 8.3767 18.889 8.3767 16.2213C8.3767 13.6401 9.225 11.5764 10.9236 9.98478C12.6202 8.39318 14.8274 7.57677 17.5431 7.57677C18.7189 7.57677 21.0909 8.02209 21.0909 8.02209L25.6497 2.58758C22.9746 1.17329 20.088 0.441406 16.9898 0.441406C12.2378 0.441406 8.29126 1.90312 5.19307 4.82859C2.09487 7.75201 0.524414 11.4939 0.524414 16.0955C0.524414 20.6538 2.05215 24.3957 5.15035 27.3624C8.24854 30.2858 12.1096 31.7496 16.6928 31.7496C19.2824 31.7496 21.7012 31.2775 23.9491 30.3724C26.1969 29.4261 27.8955 28.3087 29.0836 26.9748V13.6009H26.0464Z" fill="white" fill-opacity="0.7"></path>
<path d="M93.5703 31.1494H100.086L96.8272 27.8467L93.5703 31.1494Z" fill="white" fill-opacity="0.7"></path>
<path d="M92.9107 31.7886C92.1703 32.4957 91.381 33.1946 90.4818 33.9471C90.4045 34.0131 90.4045 34.1368 90.4818 34.2007C92.9738 36.2871 94.6378 37.9735 96.6965 40.5011C96.7616 40.5794 96.8837 40.5794 96.9467 40.5011C99.0054 37.9756 100.669 36.2892 103.161 34.2028C103.239 34.1368 103.239 34.0131 103.161 33.9492C102.262 33.1967 101.473 32.4978 100.732 31.7906H92.9107V31.7886Z" fill="white" fill-opacity="0.7"></path>
<path d="M116.238 20.72L108.412 28.6512L96.8271 16.9121V1.0498L116.238 20.72Z" fill="white" fill-opacity="0.7"></path>
<path d="M106.522 28.6509H99.5083L96.8271 25.9357V18.8271L106.522 28.6509Z" fill="white" fill-opacity="0.7"></path>
<path d="M77.416 20.72L85.2439 28.6512L96.827 16.9121V1.0498L77.416 20.72Z" fill="white" fill-opacity="0.7"></path>
<path d="M87.1318 28.6509H94.146L96.8272 25.9357V18.8271L87.1318 28.6509Z" fill="white" fill-opacity="0.7"></path>
</g>
<defs>
<clipPath id="clip0_57_42">
<rect width="203" height="41" fill="white"></rect>
</clipPath>
</defs>
</svg>
