<svg width="203" height="41" viewBox="0 0 203 41" fill="none" xmlns="http://www.w3.org/2000/svg">
<g clip-path="url('#clip0_1_665')">
<path d="M56.5122 31.1494V1.04938H69.7513C73.061 1.04938 75.6913 1.90908 77.6442 3.67179C79.5951 5.4345 80.5715 7.67139 80.5715 10.467C80.5715 13.2605 79.5951 15.5407 77.6442 17.3034C75.6934 19.0661 73.061 19.9279 69.7513 19.9279H64.1509V31.1515H56.5122V31.1494ZM64.1489 13.5615H69.1979C71.4051 13.5615 72.8474 12.4441 72.8474 10.5515C72.8474 8.65892 71.4478 7.5848 69.1979 7.5848H64.1489V13.5615Z" fill="#72BF44"></path>
<path d="M118.303 31.1494V1.04938H125.939V12.5307L135.572 1.04938H144.738L133.238 14.8954L146.86 31.1515H137.567L125.941 17.7776V31.1515H118.303V31.1494Z" fill="#42AE49"></path>
<path d="M149.271 31.1494V1.04938H171.843V7.84251H156.907V11.9287H168.787V18.4641H156.907V24.3563H172.183V31.1515H149.271V31.1494Z" fill="#42AE49"></path>
<path d="M174.596 31.1494V1.04938H188.555C191.822 1.04938 194.41 1.90908 196.32 3.67179C198.271 5.39327 199.247 7.6281 199.247 10.3371C199.247 14.2501 197.083 17.39 193.476 18.8084L202.471 31.1515H193.687L185.286 19.6702H182.23V31.1515H174.596V31.1494ZM182.234 13.3471H188.132C190.211 13.3471 191.527 12.273 191.527 10.5103C191.527 8.74757 190.211 7.5848 188.132 7.5848H182.234V13.3471Z" fill="#42AE49"></path>
<path d="M36.9507 31.1494V7.83839H28.0386V1.04319H53.5422V7.83839H44.5874V31.1474H36.9507V31.1494Z" fill="#E32228"></path>
<path d="M26.0469 13.6007H21.4047H15.9467L14.1179 19.8454H21.4067V23.4492C20.2614 24.3955 18.691 24.8676 16.6953 24.8676C14.362 24.8676 12.4091 24.0945 10.7959 22.5441C9.18276 20.9958 8.37719 18.8888 8.37719 16.221C8.37719 13.6399 9.22548 11.5762 10.9241 9.98456C12.6207 8.39297 14.8279 7.57656 17.5436 7.57656C18.7194 7.57656 21.0914 8.02187 21.0914 8.02187L25.6502 2.58737C22.9751 1.17308 20.0885 0.441193 16.9903 0.441193C12.2382 0.441193 8.29175 1.9029 5.19356 4.82838C2.09536 7.7518 0.524902 11.4937 0.524902 16.0953C0.524902 20.6536 2.05264 24.3955 5.15084 27.3622C8.24903 30.2856 12.1101 31.7494 16.6933 31.7494C19.2829 31.7494 21.7017 31.2773 23.9495 30.3722C26.1974 29.4259 27.896 28.3085 29.084 26.9746V13.6007H26.0469Z" fill="#E32228"></path>
<path d="M93.5703 31.1494H100.086L96.8272 27.8467L93.5703 31.1494Z" fill="#42AE49"></path>
<path d="M92.9117 31.7886C92.1712 32.4957 91.3819 33.1946 90.4828 33.9471C90.4055 34.0131 90.4055 34.1368 90.4828 34.2007C92.9748 36.2871 94.6388 37.9735 96.6975 40.5011C96.7626 40.5794 96.8846 40.5794 96.9477 40.5011C99.0064 37.9756 100.67 36.2891 103.162 34.2027C103.24 34.1368 103.24 34.0131 103.162 33.9492C102.263 33.1967 101.474 32.4978 100.733 31.7906H92.9117V31.7886Z" fill="#E32228"></path>
<path d="M116.238 20.7196L108.412 28.6507L96.8271 16.9117V1.04938L116.238 20.7196Z" fill="#42AE49"></path>
<path d="M106.522 28.6507H99.5083L96.8271 25.9355V18.827L106.522 28.6507Z" fill="#42AE49"></path>
<path d="M77.416 20.7196L85.2439 28.6507L96.827 16.9117V1.04938L77.416 20.7196Z" fill="#72BF44"></path>
<path d="M87.1318 28.6507H94.146L96.8272 25.9355V18.827L87.1318 28.6507Z" fill="#72BF44"></path>
</g>
<defs>
<clipPath id="clip0_1_665">
<rect width="203" height="41" fill="white"></rect>
</clipPath>
</defs>
</svg>
